<svg id="Layer_1" data-name="Layer 1" xmlns="http://www.w3.org/2000/svg" viewBox="0 0 657.98 353.65"><defs><style>.cls-1{fill:#010e11;}.cls-2{fill:#808083;}.cls-3{fill:none;}.cls-4{fill:#052128;}.cls-5{fill:#2b398e;}.cls-6{fill:#00aced;}</style></defs><title>Artboard 22</title><path class="cls-1" d="M49.21,281.74a1.23,1.23,0,0,1-.91-.36,1.21,1.21,0,0,1-.36-.91v-33a1.24,1.24,0,0,1,.36-.92,1.22,1.22,0,0,1,.91-.35H62.42a20.31,20.31,0,0,1,8.48,1.6,11.94,11.94,0,0,1,5.38,4.67,15.34,15.34,0,0,1,2,7.59c0,1.49,0,2.79,0,3.91s0,2.4,0,3.86a17,17,0,0,1-2,7.82,10.93,10.93,0,0,1-5.23,4.59,20.9,20.9,0,0,1-8.4,1.5ZM57,274.43h5.39a8.46,8.46,0,0,0,3.63-.69,4.57,4.57,0,0,0,2.18-2.16,9.16,9.16,0,0,0,.79-3.85c.06-1,.11-1.87.12-2.65s0-1.55,0-2.33-.06-1.64-.12-2.59c-.07-2.3-.67-4-1.81-5.05a7.09,7.09,0,0,0-5-1.6H57Z"/><path class="cls-1" d="M85.57,281.74a1.23,1.23,0,0,1-1.27-1.27v-33a1.24,1.24,0,0,1,.36-.92,1.21,1.21,0,0,1,.91-.35h6.8a1.23,1.23,0,0,1,.92.35,1.27,1.27,0,0,1,.35.92v33a1.22,1.22,0,0,1-1.27,1.27Z"/><path class="cls-1" d="M115.42,282.25a19.85,19.85,0,0,1-8.3-1.6,12.11,12.11,0,0,1-5.38-4.67,15.4,15.4,0,0,1-2.11-7.49c0-1.46,0-3,0-4.65s0-3.21,0-4.7a14.56,14.56,0,0,1,2.14-7.31,12.24,12.24,0,0,1,5.43-4.57,19.89,19.89,0,0,1,8.22-1.57,22.17,22.17,0,0,1,6.76.94,15.55,15.55,0,0,1,4.95,2.51,11.64,11.64,0,0,1,3.05,3.45,8.24,8.24,0,0,1,1.09,3.71.86.86,0,0,1-.28.76,1.14,1.14,0,0,1-.79.31h-7.41a1.57,1.57,0,0,1-.84-.18,1.46,1.46,0,0,1-.48-.53,7.87,7.87,0,0,0-1-1.6,5.91,5.91,0,0,0-1.88-1.45,6.87,6.87,0,0,0-3.13-.61,6.47,6.47,0,0,0-4.54,1.52,6.8,6.8,0,0,0-1.8,4.88q-.15,4.37,0,8.83.15,3.56,1.88,5.13a6.51,6.51,0,0,0,4.57,1.58,8.38,8.38,0,0,0,3.42-.66,5.14,5.14,0,0,0,2.36-2.06,6.68,6.68,0,0,0,.87-3.58v-1h-4.77a1.31,1.31,0,0,1-1.33-1.32V262.6a1.31,1.31,0,0,1,1.33-1.32H130.2a1.16,1.16,0,0,1,.91.38,1.3,1.3,0,0,1,.36.94v5.79a13.57,13.57,0,0,1-2,7.46,12.74,12.74,0,0,1-5.61,4.75A20.27,20.27,0,0,1,115.42,282.25Z"/><path class="cls-1" d="M138.58,281.74a1.22,1.22,0,0,1-1.27-1.27v-33a1.27,1.27,0,0,1,.35-.92,1.24,1.24,0,0,1,.92-.35h6.8a1.24,1.24,0,0,1,.92.35,1.27,1.27,0,0,1,.35.92v33a1.22,1.22,0,0,1-1.27,1.27Z"/><path class="cls-1" d="M162.85,281.74a1.22,1.22,0,0,1-1.27-1.27v-26.3h-9a1.19,1.19,0,0,1-.91-.38,1.26,1.26,0,0,1-.36-.89v-5.43a1.24,1.24,0,0,1,.36-.92,1.21,1.21,0,0,1,.91-.35h27.32a1.21,1.21,0,0,1,.91.35,1.24,1.24,0,0,1,.36.92v5.43a1.26,1.26,0,0,1-.36.89,1.19,1.19,0,0,1-.91.38h-9v26.3a1.22,1.22,0,0,1-1.27,1.27Z"/><path class="cls-1" d="M180.11,281.74a1,1,0,0,1-.73-.33,1,1,0,0,1-.33-.74,1.55,1.55,0,0,1,0-.45L191,247.62a2,2,0,0,1,.63-1,2,2,0,0,1,1.35-.43h7.51a1.94,1.94,0,0,1,1.35.43,2,2,0,0,1,.63,1l11.89,32.6a1.06,1.06,0,0,1,.1.45,1,1,0,0,1-.33.74,1.07,1.07,0,0,1-.79.33h-6.24a1.59,1.59,0,0,1-1.15-.38,2,2,0,0,1-.48-.69l-2-5.18H190L188,280.67a2,2,0,0,1-.45.69,1.65,1.65,0,0,1-1.22.38ZM192,268.18h9.45l-4.77-13.4Z"/><path class="cls-1" d="M219.77,281.74a1.22,1.22,0,0,1-1.27-1.27v-33a1.27,1.27,0,0,1,.35-.92,1.24,1.24,0,0,1,.92-.35h6.7a1.24,1.24,0,0,1,.89.35,1.21,1.21,0,0,1,.38.92v26.6h15.33a1.3,1.3,0,0,1,1.32,1.32v5.08a1.16,1.16,0,0,1-.38.91,1.3,1.3,0,0,1-.94.36Z"/><path class="cls-1" d="M254.85,281.74a1,1,0,0,1-.73-.33,1,1,0,0,1-.33-.74,1.55,1.55,0,0,1,.05-.45l11.93-32.6a2,2,0,0,1,.64-1,1.93,1.93,0,0,1,1.34-.43h7.52a1.93,1.93,0,0,1,1.34.43,2.15,2.15,0,0,1,.64,1l11.88,32.6a.93.93,0,0,1,.1.45,1,1,0,0,1-.33.74,1.07,1.07,0,0,1-.79.33h-6.24a1.59,1.59,0,0,1-1.15-.38,2,2,0,0,1-.48-.69l-2-5.18H264.71l-1.93,5.18a2.17,2.17,0,0,1-.46.69,1.65,1.65,0,0,1-1.22.38Zm11.94-13.56h9.44l-4.77-13.4Z"/><path class="cls-1" d="M307.15,282.25a19.85,19.85,0,0,1-8.3-1.6,12.11,12.11,0,0,1-5.38-4.67,15.4,15.4,0,0,1-2.11-7.49c0-1.46-.05-3-.05-4.65s0-3.21.05-4.7a14.56,14.56,0,0,1,2.14-7.31,12.24,12.24,0,0,1,5.43-4.57,19.89,19.89,0,0,1,8.22-1.57,22.17,22.17,0,0,1,6.76.94,15.55,15.55,0,0,1,4.95,2.51,11.6,11.6,0,0,1,3,3.45,8.13,8.13,0,0,1,1.1,3.71.86.86,0,0,1-.28.76,1.15,1.15,0,0,1-.79.31h-7.41a1.54,1.54,0,0,1-.84-.18,1.46,1.46,0,0,1-.48-.53,7.87,7.87,0,0,0-1-1.6,5.91,5.91,0,0,0-1.88-1.45,6.87,6.87,0,0,0-3.13-.61,6.45,6.45,0,0,0-4.54,1.52,6.8,6.8,0,0,0-1.8,4.88q-.17,4.37,0,8.83c.1,2.37.72,4.08,1.88,5.13a6.51,6.51,0,0,0,4.57,1.58,8.41,8.41,0,0,0,3.42-.66,5.14,5.14,0,0,0,2.36-2.06,6.68,6.68,0,0,0,.87-3.58v-1h-4.78a1.3,1.3,0,0,1-1.32-1.32V262.6a1.3,1.3,0,0,1,1.32-1.32h12.8a1.16,1.16,0,0,1,.91.38,1.3,1.3,0,0,1,.36.94v5.79a13.57,13.57,0,0,1-2,7.46,12.74,12.74,0,0,1-5.61,4.75A20.27,20.27,0,0,1,307.15,282.25Z"/><path class="cls-1" d="M330.31,281.74a1.22,1.22,0,0,1-1.27-1.27v-33a1.27,1.27,0,0,1,.35-.92,1.23,1.23,0,0,1,.92-.35H354a1.21,1.21,0,0,1,.91.35,1.24,1.24,0,0,1,.36.92v4.77a1.23,1.23,0,0,1-1.27,1.27h-16.2v6.85H352.9a1.23,1.23,0,0,1,.92.38,1.37,1.37,0,0,1,.35.94v4.42a1.28,1.28,0,0,1-.35.89,1.23,1.23,0,0,1-.92.38H337.82v7.06h16.61a1.22,1.22,0,0,1,1.27,1.27v4.77a1.21,1.21,0,0,1-.36.91,1.23,1.23,0,0,1-.91.36Z"/><path class="cls-1" d="M362.75,281.74a1.23,1.23,0,0,1-.91-.36,1.21,1.21,0,0,1-.36-.91v-33a1.24,1.24,0,0,1,.36-.92,1.22,1.22,0,0,1,.91-.35h5.38a1.69,1.69,0,0,1,1.25.38,2.92,2.92,0,0,1,.48.58l12.39,19.55V247.47a1.24,1.24,0,0,1,.36-.92,1.21,1.21,0,0,1,.91-.35h6.09a1.23,1.23,0,0,1,.92.35,1.27,1.27,0,0,1,.35.92v33a1.3,1.3,0,0,1-.35.89,1.21,1.21,0,0,1-.92.38h-5.43a1.56,1.56,0,0,1-1.19-.41,3.56,3.56,0,0,1-.48-.56L370.12,262v18.48a1.21,1.21,0,0,1-.36.91,1.23,1.23,0,0,1-.91.36Z"/><path class="cls-1" d="M412.56,282.25a19.68,19.68,0,0,1-8.25-1.58,12.09,12.09,0,0,1-5.33-4.62,15.39,15.39,0,0,1-2.11-7.56c0-1.39-.05-2.88-.05-4.47s0-3.12.05-4.57A15.16,15.16,0,0,1,399,252a12.21,12.21,0,0,1,5.38-4.67,19.24,19.24,0,0,1,8.17-1.6,21.82,21.82,0,0,1,6.2.84,15.62,15.62,0,0,1,5,2.43,11.65,11.65,0,0,1,3.32,3.86,11.12,11.12,0,0,1,1.24,5.11.84.84,0,0,1-.27.76,1.15,1.15,0,0,1-.79.3h-6.86a1.56,1.56,0,0,1-1-.28,2.12,2.12,0,0,1-.61-1,5.9,5.9,0,0,0-2.31-3.68,7.36,7.36,0,0,0-3.94-1,6.13,6.13,0,0,0-4.41,1.55q-1.64,1.55-1.78,5.15-.15,4.17,0,8.53c.1,2.41.69,4.12,1.78,5.16a6.13,6.13,0,0,0,4.41,1.55,7.29,7.29,0,0,0,4-1,5.69,5.69,0,0,0,2.29-3.66,1.86,1.86,0,0,1,.58-1,1.78,1.78,0,0,1,1-.28h6.86a1.15,1.15,0,0,1,.79.31.83.83,0,0,1,.27.76,11,11,0,0,1-1.24,5.1,11.46,11.46,0,0,1-3.32,3.86,15.64,15.64,0,0,1-5,2.44A21.82,21.82,0,0,1,412.56,282.25Z"/><path class="cls-1" d="M443,281.74a1.26,1.26,0,0,1-.89-.36,1.19,1.19,0,0,1-.38-.91V269.55L430,247.82c0-.1-.07-.19-.1-.28a.82.82,0,0,1-.05-.28,1,1,0,0,1,.33-.73,1.07,1.07,0,0,1,.79-.33h6.34a1.73,1.73,0,0,1,1.2.38,1.82,1.82,0,0,1,.53.68l7.31,13.1,7.31-13.1a2.42,2.42,0,0,1,.59-.68,1.69,1.69,0,0,1,1.19-.38h6.35a1,1,0,0,1,.76.33,1.06,1.06,0,0,1,.3.73,2.3,2.3,0,0,1,0,.28c0,.09-.05.18-.08.28L450.9,269.55v10.92a1.23,1.23,0,0,1-1.27,1.27Z"/><path class="cls-1" d="M477.76,281.74a1.23,1.23,0,0,1-1.27-1.27v-33a1.24,1.24,0,0,1,.36-.92,1.21,1.21,0,0,1,.91-.35H492a19.18,19.18,0,0,1,7.34,1.29,10.65,10.65,0,0,1,4.87,3.88,11.45,11.45,0,0,1,1.75,6.56,11.07,11.07,0,0,1-1.75,6.44,10.24,10.24,0,0,1-4.87,3.76,20.23,20.23,0,0,1-7.34,1.22h-6v11.12a1.19,1.19,0,0,1-.38.91,1.33,1.33,0,0,1-.94.36Zm8-19.4h5.94a5.15,5.15,0,0,0,3.48-1.11,4.25,4.25,0,0,0,1.3-3.41,4.9,4.9,0,0,0-1.12-3.25,4.54,4.54,0,0,0-3.66-1.32h-5.94Z"/><path class="cls-1" d="M506.91,281.74a1.13,1.13,0,0,1-1.07-1.07,2,2,0,0,1,.05-.45l11.93-32.6a2.15,2.15,0,0,1,.64-1,1.93,1.93,0,0,1,1.34-.43h7.52a1.93,1.93,0,0,1,1.34.43,2,2,0,0,1,.64,1l11.88,32.6a.93.93,0,0,1,.1.45,1,1,0,0,1-.33.74,1.07,1.07,0,0,1-.78.33h-6.25a1.55,1.55,0,0,1-1.14-.38,1.73,1.73,0,0,1-.48-.69l-2-5.18H516.76l-1.93,5.18a2,2,0,0,1-.46.69,1.63,1.63,0,0,1-1.22.38Zm11.93-13.56h9.44l-4.77-13.4Z"/><path class="cls-1" d="M546.56,281.74a1.23,1.23,0,0,1-.91-.36,1.21,1.21,0,0,1-.36-.91v-33a1.24,1.24,0,0,1,.36-.92,1.22,1.22,0,0,1,.91-.35h13.81q6.55,0,10.34,3a11.54,11.54,0,0,1,2,14.65,10.91,10.91,0,0,1-4.6,3.75l7,12.49a1.31,1.31,0,0,1,.15.56,1,1,0,0,1-.33.74,1.07,1.07,0,0,1-.79.33h-6.7a1.89,1.89,0,0,1-1.42-.48,4.13,4.13,0,0,1-.66-.89l-5.79-11.17h-5.23v11.27a1.22,1.22,0,0,1-1.27,1.27Zm7.82-19.7h5.89a4.92,4.92,0,0,0,3.58-1.17,4.25,4.25,0,0,0,1.2-3.2,4.5,4.5,0,0,0-1.15-3.2,4.78,4.78,0,0,0-3.63-1.22h-5.89Z"/><path class="cls-1" d="M581.65,281.74a1.23,1.23,0,0,1-1.27-1.27v-33a1.24,1.24,0,0,1,.36-.92,1.21,1.21,0,0,1,.91-.35h6.4a1.22,1.22,0,0,1,.91.35,1.24,1.24,0,0,1,.36.92v11.27l9.39-11.58a2.55,2.55,0,0,1,.69-.63,2.24,2.24,0,0,1,1.29-.33H608a1,1,0,0,1,.76.33,1,1,0,0,1,.31.73,1,1,0,0,1-.2.61l-12.14,15.34,13.1,16.85a.86.86,0,0,1,.2.61,1,1,0,0,1-.33.74,1,1,0,0,1-.73.33H601.4a2.14,2.14,0,0,1-1.4-.41,4.12,4.12,0,0,1-.63-.61l-10-12.54v12.29a1.21,1.21,0,0,1-.36.91,1.23,1.23,0,0,1-.91.36Z"/><path class="cls-2" d="M48.4,314.3a.32.32,0,0,1-.25-.1.32.32,0,0,1-.09-.24V304a.37.37,0,0,1,.09-.26.35.35,0,0,1,.25-.09h3.24a5.5,5.5,0,0,1,2.53.48,2.67,2.67,0,0,1,1.3,1.39,5.91,5.91,0,0,1,.41,2.25c0,.45,0,.86,0,1.21s0,.75,0,1.21a6.5,6.5,0,0,1-.41,2.31,2.67,2.67,0,0,1-1.28,1.37,5.62,5.62,0,0,1-2.47.45Zm.62-.92h2.62a4.65,4.65,0,0,0,1.93-.33,1.94,1.94,0,0,0,1-1.05,5,5,0,0,0,.33-1.91c0-.3,0-.57,0-.8v-.68c0-.22,0-.48,0-.79a3.61,3.61,0,0,0-.78-2.47,3.4,3.4,0,0,0-2.57-.8H49Z"/><path class="cls-2" d="M66,304.74a.32.32,0,0,1-.24-.09.33.33,0,0,1-.1-.24v-.58a.37.37,0,0,1,.1-.25.3.3,0,0,1,.24-.1h.58a.34.34,0,0,1,.35.35v.58a.3.3,0,0,1-.1.24.37.37,0,0,1-.25.09Zm.17,9.56a.33.33,0,0,1-.25-.1.32.32,0,0,1-.09-.24v-7.25a.32.32,0,0,1,.09-.24.37.37,0,0,1,.25-.09h.26a.31.31,0,0,1,.33.33V314a.32.32,0,0,1-.09.24.3.3,0,0,1-.24.1Z"/><path class="cls-2" d="M79.76,317.65a4.19,4.19,0,0,1-1.59-.26,3,3,0,0,1-1-.63,2.25,2.25,0,0,1-.48-.75,2.35,2.35,0,0,1-.15-.6.28.28,0,0,1,.09-.25.33.33,0,0,1,.24-.1h.22a.46.46,0,0,1,.21.05.44.44,0,0,1,.15.27,3.2,3.2,0,0,0,.3.57,1.67,1.67,0,0,0,.65.57,2.7,2.7,0,0,0,1.25.24,4.09,4.09,0,0,0,1.4-.21,1.62,1.62,0,0,0,.86-.75,3.12,3.12,0,0,0,.29-1.5v-1.06a3,3,0,0,1-1,.87,3.74,3.74,0,0,1-3.07,0,2.83,2.83,0,0,1-1-.85,4,4,0,0,1-.57-1.19,5.48,5.48,0,0,1-.19-1.33c0-.28,0-.57,0-.85a5.48,5.48,0,0,1,.19-1.33,3.8,3.8,0,0,1,.57-1.18,2.76,2.76,0,0,1,1-.86,3.33,3.33,0,0,1,1.51-.32,3,3,0,0,1,2.55,1.21v-.7a.34.34,0,0,1,.1-.26.32.32,0,0,1,.24-.09h.24a.35.35,0,0,1,.25.09.34.34,0,0,1,.1.26v7.41a5,5,0,0,1-.29,1.77,2.49,2.49,0,0,1-1,1.27A4,4,0,0,1,79.76,317.65Zm0-4.08a2.2,2.2,0,0,0,1.4-.42,2.37,2.37,0,0,0,.78-1,3.76,3.76,0,0,0,.28-1.25c0-.15,0-.33,0-.54s0-.4,0-.55a3.65,3.65,0,0,0-.28-1.24,2.34,2.34,0,0,0-.78-1,2.2,2.2,0,0,0-1.4-.41,2.31,2.31,0,0,0-1.41.39,2.28,2.28,0,0,0-.76,1,4.63,4.63,0,0,0-.26,1.37c0,.28,0,.57,0,.85a4.63,4.63,0,0,0,.26,1.37,2.28,2.28,0,0,0,.76,1A2.31,2.31,0,0,0,79.78,313.57Z"/><path class="cls-2" d="M93.44,304.74a.31.31,0,0,1-.33-.33v-.58a.37.37,0,0,1,.09-.25.3.3,0,0,1,.24-.1H94a.34.34,0,0,1,.35.35v.58a.3.3,0,0,1-.1.24.37.37,0,0,1-.25.09Zm.17,9.56a.33.33,0,0,1-.25-.1.32.32,0,0,1-.09-.24v-7.25a.32.32,0,0,1,.09-.24.37.37,0,0,1,.25-.09h.26a.31.31,0,0,1,.33.33V314a.32.32,0,0,1-.09.24.3.3,0,0,1-.24.1Z"/><path class="cls-2" d="M107,314.3a2.11,2.11,0,0,1-1.25-.34,1.77,1.77,0,0,1-.64-.91,4.39,4.39,0,0,1-.18-1.3v-4.49h-1.19a.32.32,0,0,1-.24-.09.35.35,0,0,1-.09-.25v-.21a.31.31,0,0,1,.33-.33h1.19v-2.56a.31.31,0,0,1,.34-.34h.25a.31.31,0,0,1,.34.34v2.56h1.89a.31.31,0,0,1,.33.33v.21a.35.35,0,0,1-.09.25.32.32,0,0,1-.24.09h-1.89v4.43a2.52,2.52,0,0,0,.27,1.27,1,1,0,0,0,1,.45h.82a.32.32,0,0,1,.24.09.33.33,0,0,1,.1.25V314a.34.34,0,0,1-.34.34Z"/><path class="cls-2" d="M119.5,314.45a2.9,2.9,0,0,1-1.34-.31,2.6,2.6,0,0,1-1-.81,1.85,1.85,0,0,1-.38-1.15,2,2,0,0,1,.83-1.66,4.61,4.61,0,0,1,2.18-.81l2.41-.33v-.54a1.69,1.69,0,0,0-.49-1.27,2.28,2.28,0,0,0-1.58-.46,2.31,2.31,0,0,0-1.28.31,1.59,1.59,0,0,0-.67.81.29.29,0,0,1-.29.23h-.24a.29.29,0,0,1-.26-.1.36.36,0,0,1-.08-.23,1.23,1.23,0,0,1,.16-.54,2.3,2.3,0,0,1,.5-.63,2.66,2.66,0,0,1,.86-.52,3.37,3.37,0,0,1,1.3-.22,3.72,3.72,0,0,1,1.48.25,2.35,2.35,0,0,1,.92.63,2.25,2.25,0,0,1,.46.86,3.33,3.33,0,0,1,.14.93V314a.32.32,0,0,1-.09.24.3.3,0,0,1-.25.1h-.25a.3.3,0,0,1-.25-.1.32.32,0,0,1-.09-.24v-.72a2.21,2.21,0,0,1-.52.55,2.79,2.79,0,0,1-.86.47A3.84,3.84,0,0,1,119.5,314.45Zm.16-.88a2.78,2.78,0,0,0,1.28-.31,2.26,2.26,0,0,0,.92-.94,3.28,3.28,0,0,0,.34-1.59v-.52l-2,.28a4.53,4.53,0,0,0-1.88.58,1.19,1.19,0,0,0-.64,1,1.13,1.13,0,0,0,.29.82,1.61,1.61,0,0,0,.73.48A2.69,2.69,0,0,0,119.66,313.57Z"/><path class="cls-2" d="M133.5,314.3a.3.3,0,0,1-.24-.1.32.32,0,0,1-.09-.24V303.82a.33.33,0,0,1,.09-.25.32.32,0,0,1,.24-.09h.26a.37.37,0,0,1,.25.09.33.33,0,0,1,.09.25V314a.32.32,0,0,1-.09.24.33.33,0,0,1-.25.1Z"/><path class="cls-2" d="M156.29,314.3a.33.33,0,0,1-.25-.1.3.3,0,0,1-.1-.24V304a.34.34,0,0,1,.1-.26.37.37,0,0,1,.25-.09h.38a.32.32,0,0,1,.23.08.36.36,0,0,1,.09.12l3.46,6.73,3.47-6.73.1-.12a.29.29,0,0,1,.22-.08h.37a.36.36,0,0,1,.26.09.37.37,0,0,1,.09.26v10a.33.33,0,0,1-.35.34h-.28a.3.3,0,0,1-.24-.1A.32.32,0,0,1,164,314V305.7l-2.91,5.73a.47.47,0,0,1-.18.23.5.5,0,0,1-.29.08h-.34a.5.5,0,0,1-.29-.08.62.62,0,0,1-.18-.23l-2.91-5.73V314a.32.32,0,0,1-.09.24.3.3,0,0,1-.24.1Z"/><path class="cls-2" d="M177.37,314.45a3,3,0,0,1-1.35-.31,2.64,2.64,0,0,1-1-.81,1.85,1.85,0,0,1-.38-1.15,2,2,0,0,1,.83-1.66,4.61,4.61,0,0,1,2.18-.81l2.41-.33v-.54a1.66,1.66,0,0,0-.5-1.27,2.23,2.23,0,0,0-1.57-.46,2.31,2.31,0,0,0-1.28.31,1.59,1.59,0,0,0-.67.81.29.29,0,0,1-.29.23h-.25a.28.28,0,0,1-.25-.1.31.31,0,0,1-.08-.23,1.23,1.23,0,0,1,.16-.54,2.45,2.45,0,0,1,.49-.63,2.83,2.83,0,0,1,.87-.52,3.37,3.37,0,0,1,1.3-.22,3.72,3.72,0,0,1,1.48.25,2.35,2.35,0,0,1,.92.63,2.25,2.25,0,0,1,.46.86,3.33,3.33,0,0,1,.14.93V314a.32.32,0,0,1-.09.24.32.32,0,0,1-.25.1h-.26a.3.3,0,0,1-.24-.1.32.32,0,0,1-.09-.24v-.72a2.41,2.41,0,0,1-.52.55,2.79,2.79,0,0,1-.86.47A3.84,3.84,0,0,1,177.37,314.45Zm.16-.88a2.71,2.71,0,0,0,1.27-.31,2.22,2.22,0,0,0,.93-.94,3.4,3.4,0,0,0,.34-1.59v-.52l-2,.28a4.53,4.53,0,0,0-1.88.58,1.19,1.19,0,0,0-.64,1,1.17,1.17,0,0,0,.28.82,1.7,1.7,0,0,0,.74.48A2.69,2.69,0,0,0,177.53,313.57Z"/><path class="cls-2" d="M191.36,314.3a.32.32,0,0,1-.25-.1A.32.32,0,0,1,191,314v-7.23a.37.37,0,0,1,.09-.26.35.35,0,0,1,.25-.09h.24a.35.35,0,0,1,.25.09.34.34,0,0,1,.1.26v.7a1.8,1.8,0,0,1,.79-.8,2.89,2.89,0,0,1,1.28-.25h.57a.31.31,0,0,1,.33.33v.21a.35.35,0,0,1-.09.25.32.32,0,0,1-.24.09h-.66a1.83,1.83,0,0,0-2,2V314a.3.3,0,0,1-.1.24.32.32,0,0,1-.25.1Z"/><path class="cls-2" d="M204.29,314.3a.3.3,0,0,1-.24-.1.33.33,0,0,1-.1-.24V303.82a.34.34,0,0,1,.1-.25.32.32,0,0,1,.24-.09h.26a.32.32,0,0,1,.24.09.33.33,0,0,1,.09.25v5.39l3.4-2.58a2.08,2.08,0,0,1,.31-.21.92.92,0,0,1,.33,0h.29a.29.29,0,0,1,.22.08.27.27,0,0,1,.08.22.39.39,0,0,1,0,.14.41.41,0,0,1-.16.16l-3.86,2.93,4.24,3.78c.13.12.2.22.2.3a.31.31,0,0,1-.31.31h-.24a1.16,1.16,0,0,1-.33,0,1.4,1.4,0,0,1-.31-.22l-3.83-3.4V314a.32.32,0,0,1-.09.24.3.3,0,0,1-.24.1Z"/><path class="cls-2" d="M221.56,314.45a3,3,0,0,1-2.34-1,4.13,4.13,0,0,1-1-2.54c0-.15,0-.35,0-.6s0-.46,0-.61a4.58,4.58,0,0,1,.49-1.83,3.08,3.08,0,0,1,1.13-1.24,3.25,3.25,0,0,1,1.71-.44,3.4,3.4,0,0,1,1.82.47,3.15,3.15,0,0,1,1.15,1.36,5,5,0,0,1,.4,2.1v.23a.3.3,0,0,1-.1.24.33.33,0,0,1-.25.1h-5.42v.15a3.23,3.23,0,0,0,.32,1.3,2.53,2.53,0,0,0,.82,1,2.14,2.14,0,0,0,1.26.39,2.65,2.65,0,0,0,1.09-.2,3,3,0,0,0,.7-.44,1.61,1.61,0,0,0,.33-.36.68.68,0,0,1,.21-.23.54.54,0,0,1,.25,0h.24a.41.41,0,0,1,.24.08.25.25,0,0,1,.08.22,1.16,1.16,0,0,1-.23.53,3.09,3.09,0,0,1-.63.62,3.61,3.61,0,0,1-1,.5A4.08,4.08,0,0,1,221.56,314.45Zm-2.4-4.59H224v-.06a3.2,3.2,0,0,0-.29-1.37,2.27,2.27,0,0,0-.84-1,2.33,2.33,0,0,0-3.43,1,3.2,3.2,0,0,0-.28,1.37Z"/><path class="cls-2" d="M237.19,314.3a2.11,2.11,0,0,1-1.25-.34,1.77,1.77,0,0,1-.64-.91,4.39,4.39,0,0,1-.18-1.3v-4.49h-1.19a.32.32,0,0,1-.24-.09.35.35,0,0,1-.09-.25v-.21a.31.31,0,0,1,.33-.33h1.19v-2.56a.31.31,0,0,1,.34-.34h.26a.32.32,0,0,1,.24.09.33.33,0,0,1,.09.25v2.56h1.89a.31.31,0,0,1,.33.33v.21a.35.35,0,0,1-.09.25.32.32,0,0,1-.24.09h-1.89v4.43a2.52,2.52,0,0,0,.27,1.27,1,1,0,0,0,1,.45h.82a.32.32,0,0,1,.24.09.33.33,0,0,1,.1.25V314a.34.34,0,0,1-.34.34Z"/><path class="cls-2" d="M247.78,304.74a.32.32,0,0,1-.24-.09.3.3,0,0,1-.1-.24v-.58a.33.33,0,0,1,.1-.25.3.3,0,0,1,.24-.1h.58a.34.34,0,0,1,.35.35v.58a.3.3,0,0,1-.1.24.37.37,0,0,1-.25.09Zm.17,9.56a.32.32,0,0,1-.25-.1.32.32,0,0,1-.09-.24v-7.25a.32.32,0,0,1,.09-.24.35.35,0,0,1,.25-.09h.26a.31.31,0,0,1,.33.33V314a.32.32,0,0,1-.09.24.3.3,0,0,1-.24.1Z"/><path class="cls-2" d="M259.43,314.3a.3.3,0,0,1-.24-.1.32.32,0,0,1-.09-.24v-7.25a.31.31,0,0,1,.33-.33h.26a.37.37,0,0,1,.25.09.32.32,0,0,1,.09.24v.72a3.17,3.17,0,0,1,1-.87,3.12,3.12,0,0,1,1.57-.34,3.08,3.08,0,0,1,1.72.45,2.75,2.75,0,0,1,1,1.22,4.22,4.22,0,0,1,.34,1.74V314a.32.32,0,0,1-.09.24.3.3,0,0,1-.24.1h-.26a.34.34,0,0,1-.34-.34v-4.25a2.82,2.82,0,0,0-.59-1.91,2.18,2.18,0,0,0-1.74-.69,2.3,2.3,0,0,0-1.74.69,2.66,2.66,0,0,0-.66,1.91V314a.32.32,0,0,1-.09.24.33.33,0,0,1-.25.1Z"/><path class="cls-2" d="M278.66,317.65a4.28,4.28,0,0,1-1.6-.26,3,3,0,0,1-1-.63,2.63,2.63,0,0,1-.48-.75,2.35,2.35,0,0,1-.15-.6.28.28,0,0,1,.09-.25.35.35,0,0,1,.25-.1H276a.46.46,0,0,1,.21.05.44.44,0,0,1,.16.27,3.84,3.84,0,0,0,.29.57,1.71,1.71,0,0,0,.66.57,2.65,2.65,0,0,0,1.24.24,4,4,0,0,0,1.4-.21,1.58,1.58,0,0,0,.86-.75,3.11,3.11,0,0,0,.3-1.5v-1.06a3.13,3.13,0,0,1-1,.87,3.71,3.71,0,0,1-3.06,0,3,3,0,0,1-1-.85,3.94,3.94,0,0,1-.56-1.19,5.49,5.49,0,0,1-.2-1.33c0-.28,0-.57,0-.85a5.49,5.49,0,0,1,.2-1.33,3.78,3.78,0,0,1,.56-1.18,2.88,2.88,0,0,1,1-.86,3.26,3.26,0,0,1,1.5-.32,3.16,3.16,0,0,1,1.56.35,3.37,3.37,0,0,1,1,.86v-.7a.37.37,0,0,1,.09-.26.32.32,0,0,1,.24-.09h.25a.37.37,0,0,1,.25.09.34.34,0,0,1,.1.26v7.41a5.21,5.21,0,0,1-.29,1.77,2.51,2.51,0,0,1-1,1.27A3.92,3.92,0,0,1,278.66,317.65Zm0-4.08a2.18,2.18,0,0,0,1.4-.42,2.4,2.4,0,0,0,.79-1,4,4,0,0,0,.28-1.25c0-.15,0-.33,0-.54s0-.4,0-.55a3.91,3.91,0,0,0-.28-1.24,2.37,2.37,0,0,0-.79-1,2.18,2.18,0,0,0-1.4-.41,2.31,2.31,0,0,0-1.41.39,2.19,2.19,0,0,0-.75,1,4.63,4.63,0,0,0-.26,1.37c0,.28,0,.57,0,.85a4.63,4.63,0,0,0,.26,1.37,2.19,2.19,0,0,0,.75,1A2.31,2.31,0,0,0,278.67,313.57Z"/><path class="cls-2" d="M302.74,314.3a.35.35,0,0,1-.31-.31.55.55,0,0,1,0-.17l3.86-9.88a.5.5,0,0,1,.16-.23.44.44,0,0,1,.28-.08h.52a.47.47,0,0,1,.28.08.5.5,0,0,1,.16.23l3.85,9.88a.55.55,0,0,1,0,.17.29.29,0,0,1-.09.21.26.26,0,0,1-.21.1H311a.27.27,0,0,1-.23-.09.6.6,0,0,1-.11-.14l-.94-2.44h-5.4l-.94,2.44a.28.28,0,0,1-.1.14.31.31,0,0,1-.24.09Zm1.95-3.58h4.66l-2.33-6Z"/><path class="cls-2" d="M323.67,317.65a4.19,4.19,0,0,1-1.59-.26,3,3,0,0,1-1-.63,2.25,2.25,0,0,1-.48-.75,2.35,2.35,0,0,1-.15-.6.28.28,0,0,1,.09-.25.33.33,0,0,1,.24-.1H321a.48.48,0,0,1,.22.05.44.44,0,0,1,.15.27,3.2,3.2,0,0,0,.3.57,1.61,1.61,0,0,0,.65.57,2.68,2.68,0,0,0,1.24.24,4,4,0,0,0,1.4-.21,1.6,1.6,0,0,0,.87-.75,3.25,3.25,0,0,0,.29-1.5v-1.06a2.93,2.93,0,0,1-1,.87,3.71,3.71,0,0,1-3.06,0,2.83,2.83,0,0,1-1-.85,3.74,3.74,0,0,1-.57-1.19,5.49,5.49,0,0,1-.2-1.33c0-.28,0-.57,0-.85a5.49,5.49,0,0,1,.2-1.33,3.59,3.59,0,0,1,.57-1.18,2.76,2.76,0,0,1,1-.86,3.26,3.26,0,0,1,1.5-.32,3,3,0,0,1,2.56,1.21v-.7a.37.37,0,0,1,.09-.26.37.37,0,0,1,.25-.09h.24a.35.35,0,0,1,.25.09.34.34,0,0,1,.1.26v7.41a5,5,0,0,1-.29,1.77,2.46,2.46,0,0,1-1,1.27A3.92,3.92,0,0,1,323.67,317.65Zm0-4.08a2.23,2.23,0,0,0,1.41-.42,2.45,2.45,0,0,0,.78-1,3.76,3.76,0,0,0,.28-1.25c0-.15,0-.33,0-.54s0-.4,0-.55a3.65,3.65,0,0,0-.28-1.24,2.42,2.42,0,0,0-.78-1,2.23,2.23,0,0,0-1.41-.41,2.3,2.3,0,0,0-1.4.39,2.14,2.14,0,0,0-.76,1,4.63,4.63,0,0,0-.26,1.37c0,.28,0,.57,0,.85a4.63,4.63,0,0,0,.26,1.37,2.14,2.14,0,0,0,.76,1A2.3,2.3,0,0,0,323.68,313.57Z"/><path class="cls-2" d="M340.12,314.45a3,3,0,0,1-2.35-1,4.25,4.25,0,0,1-1-2.54c0-.15,0-.35,0-.6s0-.46,0-.61a4.94,4.94,0,0,1,.49-1.83,3.11,3.11,0,0,1,1.14-1.24,3.25,3.25,0,0,1,1.71-.44,3.34,3.34,0,0,1,1.81.47,3.09,3.09,0,0,1,1.15,1.36,5,5,0,0,1,.41,2.1v.23a.34.34,0,0,1-.35.34h-5.43v.15a3.41,3.41,0,0,0,.32,1.3,2.64,2.64,0,0,0,.83,1,2.12,2.12,0,0,0,1.26.39,2.65,2.65,0,0,0,1.09-.2,2.74,2.74,0,0,0,.69-.44,1.48,1.48,0,0,0,.34-.36.68.68,0,0,1,.21-.23.49.49,0,0,1,.24,0h.25a.36.36,0,0,1,.23.08.24.24,0,0,1,.09.22,1.09,1.09,0,0,1-.24.53,3,3,0,0,1-.62.62,3.61,3.61,0,0,1-1,.5A4.08,4.08,0,0,1,340.12,314.45Zm-2.41-4.59h4.85v-.06a3.2,3.2,0,0,0-.29-1.37,2.27,2.27,0,0,0-.84-1,2.33,2.33,0,0,0-1.31-.35,2.28,2.28,0,0,0-1.3.35,2.22,2.22,0,0,0-.82,1,3.2,3.2,0,0,0-.29,1.37Z"/><path class="cls-2" d="M353.45,314.3a.34.34,0,0,1-.34-.34v-7.25a.3.3,0,0,1,.1-.24.32.32,0,0,1,.24-.09h.26a.31.31,0,0,1,.33.33v.72a3.33,3.33,0,0,1,1-.87,3.06,3.06,0,0,1,1.56-.34,3.11,3.11,0,0,1,1.73.45,2.81,2.81,0,0,1,1,1.22,4.22,4.22,0,0,1,.34,1.74V314a.32.32,0,0,1-.09.24.3.3,0,0,1-.24.1h-.26a.3.3,0,0,1-.25-.1.32.32,0,0,1-.09-.24v-4.25a2.87,2.87,0,0,0-.59-1.91,2.18,2.18,0,0,0-1.74-.69,2.3,2.3,0,0,0-1.74.69,2.62,2.62,0,0,0-.67,1.91V314a.32.32,0,0,1-.09.24.3.3,0,0,1-.24.1Z"/><path class="cls-2" d="M372.72,314.45a3.62,3.62,0,0,1-1.81-.42,2.73,2.73,0,0,1-1.14-1.21,4.49,4.49,0,0,1-.42-1.88c0-.15,0-.35,0-.6s0-.46,0-.61a4.54,4.54,0,0,1,.42-1.89,2.76,2.76,0,0,1,1.14-1.2,3.62,3.62,0,0,1,1.81-.42,4.09,4.09,0,0,1,1.39.22,2.88,2.88,0,0,1,1,.58,2.56,2.56,0,0,1,.58.79,2.16,2.16,0,0,1,.21.83.27.27,0,0,1-.09.25.36.36,0,0,1-.24.09h-.22a.29.29,0,0,1-.22-.07.87.87,0,0,1-.14-.25,2.32,2.32,0,0,0-.88-1.21,2.52,2.52,0,0,0-1.36-.34,2.45,2.45,0,0,0-1.72.63,2.85,2.85,0,0,0-.72,2.06,9.55,9.55,0,0,0,0,1.07,2.85,2.85,0,0,0,.72,2.06,2.46,2.46,0,0,0,1.72.64,2.52,2.52,0,0,0,1.36-.35A2.32,2.32,0,0,0,375,312a.87.87,0,0,1,.14-.25.29.29,0,0,1,.22-.07h.22a.36.36,0,0,1,.24.09.27.27,0,0,1,.09.25,2.06,2.06,0,0,1-.14.67,2.25,2.25,0,0,1-.37.65,2.39,2.39,0,0,1-.62.56,2.68,2.68,0,0,1-.87.39A4.11,4.11,0,0,1,372.72,314.45Z"/><path class="cls-2" d="M386.57,317.19a.29.29,0,0,1-.22-.09.29.29,0,0,1-.09-.21.51.51,0,0,1,0-.13l.07-.18,1.17-2.74-2.9-6.86a.89.89,0,0,1-.1-.3.26.26,0,0,1,.1-.21.29.29,0,0,1,.21-.09h.32a.43.43,0,0,1,.24.06.42.42,0,0,1,.11.16l2.56,6,2.62-6a.61.61,0,0,1,.12-.16.37.37,0,0,1,.23-.06h.3a.31.31,0,0,1,.22.09.29.29,0,0,1,.09.21,1.06,1.06,0,0,1-.09.3l-4.33,10a.48.48,0,0,1-.12.16.32.32,0,0,1-.23.07Z"/><path class="cls-2" d="M412.61,314.3a.3.3,0,0,1-.24-.1.32.32,0,0,1-.09-.24V304a.37.37,0,0,1,.09-.25.32.32,0,0,1,.24-.09h.29a.35.35,0,0,1,.25.09.37.37,0,0,1,.09.25v10a.32.32,0,0,1-.09.24.32.32,0,0,1-.25.1Z"/><path class="cls-2" d="M423.86,314.3a.3.3,0,0,1-.25-.1.32.32,0,0,1-.09-.24v-7.25a.32.32,0,0,1,.09-.24.33.33,0,0,1,.25-.09h.25a.33.33,0,0,1,.25.09.32.32,0,0,1,.09.24v.72a3.21,3.21,0,0,1,1-.87,3.06,3.06,0,0,1,1.56-.34,3.11,3.11,0,0,1,1.73.45,2.72,2.72,0,0,1,1,1.22,4.22,4.22,0,0,1,.35,1.74V314a.34.34,0,0,1-.34.34h-.26a.3.3,0,0,1-.24-.1.32.32,0,0,1-.09-.24v-4.25a2.82,2.82,0,0,0-.6-1.91,2.15,2.15,0,0,0-1.73-.69,2.32,2.32,0,0,0-1.75.69,2.66,2.66,0,0,0-.66,1.91V314a.32.32,0,0,1-.09.24.3.3,0,0,1-.25.1Z"/><path class="cls-2" d="M452.2,314.3a.3.3,0,0,1-.24-.1.32.32,0,0,1-.09-.24V304a.37.37,0,0,1,.09-.26.32.32,0,0,1,.24-.09h4a3.56,3.56,0,0,1,1.74.38,2.41,2.41,0,0,1,1,1,2.92,2.92,0,0,1,.32,1.35,2.88,2.88,0,0,1-.2,1.12,2.22,2.22,0,0,1-.52.75,2.55,2.55,0,0,1-.62.44,2.93,2.93,0,0,1,1.08,1,2.73,2.73,0,0,1,.47,1.63,3.2,3.2,0,0,1-.35,1.45,2.83,2.83,0,0,1-1.07,1.13,3.26,3.26,0,0,1-1.74.44Zm.63-6H456a2.58,2.58,0,0,0,1.72-.5,1.73,1.73,0,0,0,.58-1.4,1.63,1.63,0,0,0-.58-1.36,2.82,2.82,0,0,0-1.72-.45h-3.15Zm0,5.12h3.3a2.44,2.44,0,0,0,1.75-.59,2.16,2.16,0,0,0,0-3,2.43,2.43,0,0,0-1.75-.58h-3.3Z"/><path class="cls-2" d="M471.37,314.45a2.91,2.91,0,0,1-1.35-.31,2.75,2.75,0,0,1-1-.81,1.91,1.91,0,0,1-.38-1.15,2,2,0,0,1,.84-1.66,4.57,4.57,0,0,1,2.18-.81l2.4-.33v-.54a1.65,1.65,0,0,0-.49-1.27,2.26,2.26,0,0,0-1.58-.46,2.33,2.33,0,0,0-1.28.31,1.64,1.64,0,0,0-.67.81.28.28,0,0,1-.29.23h-.24a.3.3,0,0,1-.26-.1.36.36,0,0,1-.08-.23,1.38,1.38,0,0,1,.16-.54,2.3,2.3,0,0,1,.5-.63,2.61,2.61,0,0,1,.87-.52,3.28,3.28,0,0,1,1.29-.22,3.77,3.77,0,0,1,1.49.25,2.31,2.31,0,0,1,.91.63,2.41,2.41,0,0,1,.47.86,3.31,3.31,0,0,1,.13.93V314a.32.32,0,0,1-.09.24.3.3,0,0,1-.24.1h-.26a.34.34,0,0,1-.34-.34v-.72a2.35,2.35,0,0,1-.51.55,2.92,2.92,0,0,1-.86.47A3.88,3.88,0,0,1,471.37,314.45Zm.15-.88a2.75,2.75,0,0,0,1.28-.31,2.2,2.2,0,0,0,.92-.94,3.28,3.28,0,0,0,.34-1.59v-.52l-2,.28a4.64,4.64,0,0,0-1.89.58,1.19,1.19,0,0,0-.64,1,1.17,1.17,0,0,0,.29.82,1.64,1.64,0,0,0,.74.48A2.63,2.63,0,0,0,471.52,313.57Z"/><path class="cls-2" d="M485.35,314.3a.3.3,0,0,1-.24-.1A.32.32,0,0,1,485,314v-7.25a.31.31,0,0,1,.33-.33h.26a.31.31,0,0,1,.33.33v.72a3.33,3.33,0,0,1,1-.87,3.06,3.06,0,0,1,1.56-.34,3.11,3.11,0,0,1,1.73.45,2.81,2.81,0,0,1,1,1.22,4.22,4.22,0,0,1,.34,1.74V314a.32.32,0,0,1-.09.24.3.3,0,0,1-.24.1H491a.32.32,0,0,1-.25-.1.32.32,0,0,1-.09-.24v-4.25a2.87,2.87,0,0,0-.59-1.91,2.18,2.18,0,0,0-1.74-.69,2.3,2.3,0,0,0-1.74.69,2.66,2.66,0,0,0-.67,1.91V314a.32.32,0,0,1-.09.24.3.3,0,0,1-.24.1Z"/><path class="cls-2" d="M504.57,317.65a4.19,4.19,0,0,1-1.59-.26,3,3,0,0,1-1-.63,2.25,2.25,0,0,1-.48-.75,2.35,2.35,0,0,1-.15-.6.28.28,0,0,1,.09-.25.33.33,0,0,1,.25-.1h.21a.46.46,0,0,1,.21.05.44.44,0,0,1,.15.27,5.45,5.45,0,0,0,.3.57,1.71,1.71,0,0,0,.66.57,2.65,2.65,0,0,0,1.24.24,4,4,0,0,0,1.4-.21,1.58,1.58,0,0,0,.86-.75,3.11,3.11,0,0,0,.3-1.5v-1.06a3.13,3.13,0,0,1-1,.87,3.71,3.71,0,0,1-3.06,0,2.87,2.87,0,0,1-1-.85,3.94,3.94,0,0,1-.56-1.19,5,5,0,0,1-.2-1.33c0-.28,0-.57,0-.85a5,5,0,0,1,.2-1.33,3.78,3.78,0,0,1,.56-1.18,2.79,2.79,0,0,1,1-.86,3.26,3.26,0,0,1,1.5-.32,3.16,3.16,0,0,1,1.56.35,3.37,3.37,0,0,1,1,.86v-.7a.37.37,0,0,1,.09-.26.32.32,0,0,1,.24-.09h.25a.37.37,0,0,1,.25.09.38.38,0,0,1,.1.26v7.41a5.21,5.21,0,0,1-.29,1.77,2.56,2.56,0,0,1-1,1.27A3.94,3.94,0,0,1,504.57,317.65Zm0-4.08a2.18,2.18,0,0,0,1.4-.42,2.4,2.4,0,0,0,.79-1,4,4,0,0,0,.28-1.25c0-.15,0-.33,0-.54s0-.4,0-.55a3.91,3.91,0,0,0-.28-1.24,2.37,2.37,0,0,0-.79-1,2.18,2.18,0,0,0-1.4-.41,2.31,2.31,0,0,0-1.41.39,2.19,2.19,0,0,0-.75,1,4.33,4.33,0,0,0-.26,1.37c0,.28,0,.57,0,.85a4.33,4.33,0,0,0,.26,1.37,2.19,2.19,0,0,0,.75,1A2.31,2.31,0,0,0,504.59,313.57Z"/><path class="cls-2" d="M518.44,314.3a.32.32,0,0,1-.25-.1.32.32,0,0,1-.09-.24V303.82a.33.33,0,0,1,.09-.25.35.35,0,0,1,.25-.09h.26a.32.32,0,0,1,.24.09.33.33,0,0,1,.09.25V314a.32.32,0,0,1-.09.24.3.3,0,0,1-.24.1Z"/><path class="cls-2" d="M531.26,314.45a3,3,0,0,1-1.35-.31,2.64,2.64,0,0,1-1-.81,1.85,1.85,0,0,1-.38-1.15,2,2,0,0,1,.83-1.66,4.61,4.61,0,0,1,2.18-.81l2.41-.33v-.54a1.66,1.66,0,0,0-.5-1.27,2.23,2.23,0,0,0-1.57-.46,2.31,2.31,0,0,0-1.28.31,1.59,1.59,0,0,0-.67.81.29.29,0,0,1-.29.23h-.25a.31.31,0,0,1-.26-.1.35.35,0,0,1-.07-.23,1.23,1.23,0,0,1,.16-.54,2.45,2.45,0,0,1,.49-.63,2.83,2.83,0,0,1,.87-.52,3.37,3.37,0,0,1,1.3-.22,3.72,3.72,0,0,1,1.48.25,2.35,2.35,0,0,1,.92.63,2.39,2.39,0,0,1,.46.86,3.33,3.33,0,0,1,.14.93V314a.32.32,0,0,1-.09.24.32.32,0,0,1-.25.1h-.26a.3.3,0,0,1-.24-.1A.32.32,0,0,1,534,314v-.72a2.41,2.41,0,0,1-.52.55,2.79,2.79,0,0,1-.86.47A3.84,3.84,0,0,1,531.26,314.45Zm.16-.88a2.71,2.71,0,0,0,1.27-.31,2.22,2.22,0,0,0,.93-.94,3.4,3.4,0,0,0,.34-1.59v-.52l-2,.28a4.53,4.53,0,0,0-1.88.58,1.21,1.21,0,0,0-.65,1,1.17,1.17,0,0,0,.29.82,1.7,1.7,0,0,0,.74.48A2.69,2.69,0,0,0,531.42,313.57Z"/><path class="cls-2" d="M547.77,314.45a3.32,3.32,0,0,1-1.5-.32,2.83,2.83,0,0,1-1-.85,3.71,3.71,0,0,1-.56-1.19,5.49,5.49,0,0,1-.2-1.33,3.1,3.1,0,0,1,0-.42,3.17,3.17,0,0,1,0-.43,5.49,5.49,0,0,1,.2-1.33,3.57,3.57,0,0,1,.56-1.18,2.76,2.76,0,0,1,1-.86,3.32,3.32,0,0,1,1.5-.32,3,3,0,0,1,2.56,1.21v-3.61a.33.33,0,0,1,.09-.25.37.37,0,0,1,.25-.09h.26a.32.32,0,0,1,.24.09.33.33,0,0,1,.09.25V314a.32.32,0,0,1-.09.24.3.3,0,0,1-.24.1h-.26a.33.33,0,0,1-.25-.1.32.32,0,0,1-.09-.24v-.72a3,3,0,0,1-1,.87A3.35,3.35,0,0,1,547.77,314.45Zm.1-.88a2.22,2.22,0,0,0,1.4-.42,2.48,2.48,0,0,0,.79-1,3.51,3.51,0,0,0,.27-1.25c0-.15,0-.35,0-.59s0-.44,0-.59a3.09,3.09,0,0,0-.28-1.21,2.55,2.55,0,0,0-.8-1,2.28,2.28,0,0,0-1.38-.39,2.31,2.31,0,0,0-1.41.39,2.28,2.28,0,0,0-.76,1,4.63,4.63,0,0,0-.26,1.37c0,.28,0,.57,0,.85a4.63,4.63,0,0,0,.26,1.37,2.28,2.28,0,0,0,.76,1A2.31,2.31,0,0,0,547.87,313.57Z"/><path class="cls-2" d="M564.3,314.45a3,3,0,0,1-2.34-1,4.13,4.13,0,0,1-1-2.54c0-.15,0-.35,0-.6s0-.46,0-.61a4.75,4.75,0,0,1,.48-1.83,3.18,3.18,0,0,1,1.14-1.24,3.25,3.25,0,0,1,1.71-.44,3.34,3.34,0,0,1,1.81.47,3,3,0,0,1,1.15,1.36,5,5,0,0,1,.41,2.1v.23a.3.3,0,0,1-.1.24.33.33,0,0,1-.25.1H561.9v.15a3.4,3.4,0,0,0,.31,1.3,2.64,2.64,0,0,0,.83,1,2.12,2.12,0,0,0,1.26.39,2.65,2.65,0,0,0,1.09-.2,2.74,2.74,0,0,0,.69-.44,1.48,1.48,0,0,0,.34-.36.68.68,0,0,1,.21-.23.51.51,0,0,1,.25,0h.24a.41.41,0,0,1,.24.08.25.25,0,0,1,.08.22,1.09,1.09,0,0,1-.24.53,2.79,2.79,0,0,1-.62.62,3.61,3.61,0,0,1-1,.5A4.08,4.08,0,0,1,564.3,314.45Zm-2.4-4.59h4.84v-.06a3.2,3.2,0,0,0-.29-1.37,2.27,2.27,0,0,0-.84-1,2.31,2.31,0,0,0-1.31-.35,2.28,2.28,0,0,0-1.3.35,2.22,2.22,0,0,0-.82,1,3.2,3.2,0,0,0-.28,1.37Z"/><path class="cls-2" d="M579.81,314.45a3.69,3.69,0,0,1-1.36-.22,3.2,3.2,0,0,1-.94-.51,2.2,2.2,0,0,1-.54-.58,1.14,1.14,0,0,1-.19-.44.27.27,0,0,1,.1-.26.49.49,0,0,1,.23-.08h.23a.38.38,0,0,1,.16,0,.54.54,0,0,1,.18.17,3.44,3.44,0,0,0,.45.49,1.89,1.89,0,0,0,.67.38,3.19,3.19,0,0,0,1,.14,2.89,2.89,0,0,0,1.51-.36,1.12,1.12,0,0,0,.59-1,1,1,0,0,0-.23-.69,2,2,0,0,0-.8-.45,14,14,0,0,0-1.53-.42,5.07,5.07,0,0,1-1.47-.54,1.72,1.72,0,0,1-.69-.74,2.27,2.27,0,0,1-.18-.91,2,2,0,0,1,.3-1,2.32,2.32,0,0,1,.91-.84,3.1,3.1,0,0,1,1.51-.33,3.64,3.64,0,0,1,1.27.2,2.86,2.86,0,0,1,.87.48,2.23,2.23,0,0,1,.49.56,1.12,1.12,0,0,1,.18.44.25.25,0,0,1-.1.24.36.36,0,0,1-.24.09H582a.31.31,0,0,1-.2-.05.49.49,0,0,1-.13-.15,2.6,2.6,0,0,0-.37-.45,1.44,1.44,0,0,0-.57-.34,2.84,2.84,0,0,0-1-.13,2,2,0,0,0-1.35.37,1.18,1.18,0,0,0-.44.95,1,1,0,0,0,.18.59,1.48,1.48,0,0,0,.68.45,10.07,10.07,0,0,0,1.47.44,5.88,5.88,0,0,1,1.53.52,1.93,1.93,0,0,1,.8.74,2,2,0,0,1,.24,1,2,2,0,0,1-.34,1.13,2.44,2.44,0,0,1-1,.83A4.11,4.11,0,0,1,579.81,314.45Z"/><path class="cls-2" d="M592.76,314.3a.32.32,0,0,1-.25-.1.32.32,0,0,1-.09-.24V303.82a.33.33,0,0,1,.09-.25.35.35,0,0,1,.25-.09H593a.32.32,0,0,1,.24.09.33.33,0,0,1,.09.25v3.61a3.33,3.33,0,0,1,1-.87,3.06,3.06,0,0,1,1.56-.34,3.11,3.11,0,0,1,1.73.45,2.81,2.81,0,0,1,1,1.22,4.39,4.39,0,0,1,.34,1.74V314a.32.32,0,0,1-.09.24.32.32,0,0,1-.25.1h-.26a.3.3,0,0,1-.24-.1.32.32,0,0,1-.09-.24v-4.25a2.82,2.82,0,0,0-.6-1.91,2.15,2.15,0,0,0-1.73-.69,2.33,2.33,0,0,0-1.75.69,2.66,2.66,0,0,0-.66,1.91V314a.32.32,0,0,1-.09.24.3.3,0,0,1-.24.1Z"/><path class="cls-3" d="M245.33,183.88a29.32,29.32,0,0,0,12.6-2.38,15.84,15.84,0,0,0,7.58-7.49c1.7-3.4,2.62-7.87,2.73-13.39.24-3.41.38-6.46.44-9.16s.06-5.41,0-8.11-.2-5.7-.44-9c-.21-7.19-1.93-12.62-5.14-16.34a164.91,164.91,0,0,0-34.4,65.86Z"/><path class="cls-4" d="M263.1,118c3.21,3.72,4.93,9.15,5.14,16.34.24,3.29.38,6.29.44,9s.06,5.4,0,8.11-.2,5.75-.44,9.16c-.11,5.52-1,10-2.73,13.39a15.84,15.84,0,0,1-7.58,7.49,29.32,29.32,0,0,1-12.6,2.38H228.7a147.87,147.87,0,0,0-4.15,25.38h21.66q17.28,0,29.17-5.2a37.92,37.92,0,0,0,18.15-15.95q6.25-10.74,7-27.14.17-7.58.17-13.39T300.5,134q-.54-15.69-7.05-26.35a40,40,0,0,0-9.39-10.55A180,180,0,0,0,263.1,118Z"/><path class="cls-5" d="M226.65,111.27v.92l.84-.92Z"/><path class="cls-6" d="M247.87,86a210.57,210.57,0,0,0-52.76,63.76v55.15a4.21,4.21,0,0,0,4.4,4.4h21.93a147.28,147.28,0,0,1,5.21-31.95,165.47,165.47,0,0,1,33.22-62.15A179.63,179.63,0,0,1,280.42,94.5,186.32,186.32,0,0,1,296.6,82.08c47.91-33,90.49-48.94,165.89-20.36,7.07,2.67,14.17,5.71,21.29,9.2C383.77,13.54,313,32.78,247.87,86Zm-21.22,26.24v-.92h.84Z"/><path class="cls-4" d="M456.6,88.28a1.27,1.27,0,0,0,.57-.39L470.24,74a1.46,1.46,0,0,0-.05-2,1.49,1.49,0,0,0-2.07,0L455.06,85.89a1.45,1.45,0,0,0,.06,2.06A1.44,1.44,0,0,0,456.6,88.28Z"/><path class="cls-4" d="M426.74,69.47c-10.82,10.27-26.79,25-50,37.92l11.81,34.37c26.31-4.15,47.93-2.35,62.76-.88Z"/><path class="cls-4" d="M477.84,90.26l-17.44,6a1.49,1.49,0,0,0-.91,1.87,1.48,1.48,0,0,0,1.87.91l17.43-6a1.47,1.47,0,0,0-1-2.78Z"/><path class="cls-4" d="M482.8,110.56,464,107.64a1.45,1.45,0,1,0-.43,2.86l18.82,2.9a1.51,1.51,0,0,0,.7,0,1.49,1.49,0,0,0,1-1.15A1.45,1.45,0,0,0,482.8,110.56Z"/><path class="cls-4" d="M443.18,89.54l-8.27-24.06a3,3,0,0,0-3.85-1.88l-.27.1a3,3,0,0,0-1.88,3.85l25.27,73.5a3,3,0,0,0,3.85,1.88l.27-.1a3,3,0,0,0,1.88-3.85l-8.27-24c3.74-3.3,5.13-9.35,3.1-15.26S448.16,89.85,443.18,89.54Z"/><path class="cls-4" d="M376.31,107.63l11.75,34.19.48-.06-11.81-34.37Z"/><polygon class="cls-3" points="370.74 135.66 370.74 125.83 355.08 170.76 387.87 170.76 372.21 126.79 372.21 135.66 370.74 135.66"/><path class="cls-4" d="M432.63,212.53,391.39,99.38a7,7,0,0,0-2.2-3.43,6.77,6.77,0,0,0-4.67-1.5H372.21v32.34l15.66,44H355.09l15.65-44.93V94.45H358.43a6.76,6.76,0,0,0-4.67,1.5,7,7,0,0,0-2.2,3.43L310.15,212.53a6.41,6.41,0,0,0-.18,1.58,3.91,3.91,0,0,0,3.7,3.7h21.68q3,0,4.23-1.32a6.82,6.82,0,0,0,1.58-2.38l6.7-18h47.05l6.88,18a6.46,6.46,0,0,0,1.67,2.38,5.39,5.39,0,0,0,4,1.32h21.68a3.76,3.76,0,0,0,2.73-1.14,3.54,3.54,0,0,0,.79-4.14Z"/></svg>