<svg id="Layer_1" data-name="Layer 1" xmlns="http://www.w3.org/2000/svg" viewBox="0 0 16 16"><defs><style>.cls-1{fill:none;}.cls-2{fill:#052128;}.cls-3{fill:#2b398e;}.cls-4{fill:#00aced;}</style></defs><title>Artboard 21</title><path class="cls-1" d="M3.05,11a1.56,1.56,0,0,0,.66-.12.86.86,0,0,0,.4-.4,1.52,1.52,0,0,0,.14-.7c0-.18,0-.34,0-.48V8.86c0-.14,0-.3,0-.47A1.34,1.34,0,0,0,4,7.53,8.66,8.66,0,0,0,2.18,11Z"/><path class="cls-2" d="M4,7.53a1.34,1.34,0,0,1,.27.86c0,.17,0,.33,0,.47v.43c0,.14,0,.3,0,.48a1.52,1.52,0,0,1-.14.7.86.86,0,0,1-.4.4,1.56,1.56,0,0,1-.66.12H2.18A6.94,6.94,0,0,0,2,12.33H3.1a3.87,3.87,0,0,0,1.53-.28,2,2,0,0,0,1-.84A3.09,3.09,0,0,0,6,9.79c0-.27,0-.5,0-.7s0-.45,0-.72A2.76,2.76,0,0,0,5.58,7a2.06,2.06,0,0,0-.5-.56A11.42,11.42,0,0,0,4,7.53Z"/><path class="cls-3" d="M2.07,7.18v.05l0-.05Z"/><path class="cls-4" d="M3.18,5.85A11.08,11.08,0,0,0,.41,9.2v2.89a.21.21,0,0,0,.07.17.24.24,0,0,0,.16.07H1.79a7.56,7.56,0,0,1,.28-1.68A8.81,8.81,0,0,1,3.81,7.38,11,11,0,0,1,4.89,6.3a9.08,9.08,0,0,1,.85-.65c2.52-1.74,4.76-2.57,8.72-1.07q.55.21,1.11.48C10.32,2.05,6.6,3.06,3.18,5.85ZM2.07,7.23V7.18h0Z"/><path class="cls-2" d="M14.15,6l0,0,.68-.73a.08.08,0,0,0,0-.11.09.09,0,0,0-.11,0l-.68.73a.07.07,0,0,0,0,.1A.08.08,0,0,0,14.15,6Z"/><path class="cls-2" d="M12.58,5A12.39,12.39,0,0,1,10,7l.62,1.81a12.74,12.74,0,0,1,3.3,0Z"/><path class="cls-2" d="M15.26,6.08l-.91.31s-.07.06,0,.1a.08.08,0,0,0,.1,0l.91-.32a.08.08,0,0,0,0-.1A.07.07,0,0,0,15.26,6.08Z"/><path class="cls-2" d="M15.52,7.14l-1-.15a.06.06,0,0,0-.08.06.08.08,0,0,0,.06.09l1,.15h0a.1.1,0,0,0,.05-.06A.1.1,0,0,0,15.52,7.14Z"/><path class="cls-2" d="M13.44,6,13,4.77a.16.16,0,0,0-.2-.09h0a.16.16,0,0,0-.1.2L14,8.74a.15.15,0,0,0,.2.1h0a.16.16,0,0,0,.09-.21L13.9,7.37a.73.73,0,0,0,.16-.8A.73.73,0,0,0,13.44,6Z"/><path class="cls-2" d="M9.93,7l.62,1.79h0L10,7Z"/><polygon class="cls-1" points="9.64 8.46 9.64 7.94 8.81 10.3 10.54 10.3 9.71 7.99 9.71 8.46 9.64 8.46"/><path class="cls-2" d="M12.89,12.5,10.72,6.55a.58.58,0,0,0-.11-.18.37.37,0,0,0-.25-.07H9.71V8l.83,2.31H8.81l.83-2.36V6.3H9a.34.34,0,0,0-.24.07.47.47,0,0,0-.12.18l-2.18,6s0,.05,0,.08a.16.16,0,0,0,.07.13.18.18,0,0,0,.13.06H7.78A.32.32,0,0,0,8,12.71a.38.38,0,0,0,.08-.13l.36-.94h2.47l.36.94a.31.31,0,0,0,.09.13.28.28,0,0,0,.2.06H12.7a.2.2,0,0,0,.15-.06.18.18,0,0,0,.06-.13A.19.19,0,0,0,12.89,12.5Z"/></svg>