<svg id="Layer_1" data-name="Layer 1" xmlns="http://www.w3.org/2000/svg" viewBox="0 0 60 60"><defs><style>.cls-1{fill:none;}.cls-2{fill:#052128;}.cls-3{fill:#2b398e;}.cls-4{fill:#00aced;}</style></defs><title>Artboard 21</title><path class="cls-1" d="M12.62,40.51a5.45,5.45,0,0,0,2.32-.44,2.93,2.93,0,0,0,1.4-1.38,5.87,5.87,0,0,0,.5-2.47c.05-.63.07-1.19.08-1.69s0-1,0-1.5,0-1.05-.08-1.66a4.68,4.68,0,0,0-.95-3A30.52,30.52,0,0,0,9.55,40.51Z"/><path class="cls-2" d="M15.89,28.36a4.68,4.68,0,0,1,.95,3c.05.61.07,1.16.08,1.66s0,1,0,1.5,0,1.06-.08,1.69a5.87,5.87,0,0,1-.5,2.47,2.93,2.93,0,0,1-1.4,1.38,5.45,5.45,0,0,1-2.32.44H9.55a27.35,27.35,0,0,0-.77,4.68h4a13.41,13.41,0,0,0,5.38-1,7,7,0,0,0,3.35-2.94,10.69,10.69,0,0,0,1.28-5c0-.93,0-1.75,0-2.47s0-1.55,0-2.5a9.77,9.77,0,0,0-1.3-4.86,7.49,7.49,0,0,0-1.73-1.95A33.6,33.6,0,0,0,15.89,28.36Z"/><path class="cls-3" d="M9.17,27.12v.16l.16-.16Z"/><path class="cls-4" d="M13.08,22.45A38.65,38.65,0,0,0,3.35,34.21V44.38a.78.78,0,0,0,.23.58.81.81,0,0,0,.59.23h4a27.52,27.52,0,0,1,1-5.89A30.6,30.6,0,0,1,15.3,27.83,33.23,33.23,0,0,1,19.09,24a34.5,34.5,0,0,1,3-2.29c8.84-6.09,16.69-9,30.6-3.75,1.31.49,2.62,1.05,3.93,1.69C38.15,9.09,25.09,12.64,13.08,22.45ZM9.17,27.28v-.16h.16Z"/><path class="cls-2" d="M51.59,22.88a.25.25,0,0,0,.1-.08l2.41-2.55a.27.27,0,1,0-.39-.37L51.3,22.43a.28.28,0,0,0,.29.45Z"/><path class="cls-2" d="M46.08,19.41a44,44,0,0,1-9.23,7L39,32.74a43.59,43.59,0,0,1,11.58-.16Z"/><path class="cls-2" d="M55.5,23.24l-3.21,1.11a.26.26,0,0,0-.17.34.27.27,0,0,0,.34.17l3.22-1.11a.26.26,0,0,0,.17-.34A.28.28,0,0,0,55.5,23.24Z"/><path class="cls-2" d="M56.42,27l-3.48-.53a.26.26,0,0,0-.08.52l3.47.54a.28.28,0,0,0,.13,0,.25.25,0,0,0,.18-.21A.27.27,0,0,0,56.42,27Z"/><path class="cls-2" d="M49.11,23.11l-1.53-4.44a.56.56,0,0,0-.71-.35l0,0a.56.56,0,0,0-.34.71l4.66,13.56a.55.55,0,0,0,.71.34h0a.56.56,0,0,0,.35-.71l-1.53-4.44A2.6,2.6,0,0,0,51.29,25,2.6,2.6,0,0,0,49.11,23.11Z"/><path class="cls-2" d="M36.78,26.44l2.16,6.31H39L36.85,26.4Z"/><polygon class="cls-1" points="35.75 31.61 35.75 29.8 32.86 38.09 38.91 38.09 36.02 29.98 36.02 31.61 35.75 31.61"/><path class="cls-2" d="M47.16,45.79l-7.6-20.87a1.28,1.28,0,0,0-.41-.63,1.27,1.27,0,0,0-.86-.28H36v6l2.89,8.11h-6l2.89-8.29V24H33.48a1.25,1.25,0,0,0-.86.28,1.28,1.28,0,0,0-.41.63L24.57,45.79a1.39,1.39,0,0,0,0,.3.72.72,0,0,0,.68.68h4a1,1,0,0,0,.78-.25,1.2,1.2,0,0,0,.29-.43l1.24-3.32h8.68l1.26,3.32a1.3,1.3,0,0,0,.31.43,1,1,0,0,0,.74.25h4a.69.69,0,0,0,.51-.21.66.66,0,0,0,.21-.47A.6.6,0,0,0,47.16,45.79Z"/></svg>