<svg id="Layer_1" data-name="Layer 1" xmlns="http://www.w3.org/2000/svg" viewBox="0 0 260 60"><defs><style>.cls-1{fill:#010e11;}.cls-2{fill:#808083;}.cls-3{fill:none;}.cls-4{fill:#052128;}.cls-5{fill:#2b398e;}.cls-6{fill:#00aced;}</style></defs><title>Artboard 20</title><path class="cls-1" d="M73.44,51.21a.24.24,0,0,1-.26-.26V44.28a.23.23,0,0,1,.07-.18.25.25,0,0,1,.19-.07h2.67a4,4,0,0,1,1.71.32,2.39,2.39,0,0,1,1.09.94,3.16,3.16,0,0,1,.41,1.54c0,.3,0,.56,0,.79s0,.48,0,.78A3.38,3.38,0,0,1,78.91,50a2.17,2.17,0,0,1-1,.93,4.31,4.31,0,0,1-1.7.3ZM75,49.73h1.09a1.59,1.59,0,0,0,.73-.14.88.88,0,0,0,.44-.43,1.89,1.89,0,0,0,.16-.78q0-.3,0-.54v-.47c0-.16,0-.33,0-.52a1.36,1.36,0,0,0-.36-1,1.43,1.43,0,0,0-1-.33H75Z"/><path class="cls-1" d="M80.79,51.21a.24.24,0,0,1-.26-.26V44.28a.23.23,0,0,1,.07-.18.25.25,0,0,1,.19-.07h1.37a.25.25,0,0,1,.19.07.23.23,0,0,1,.07.18V51a.24.24,0,0,1-.26.26Z"/><path class="cls-1" d="M86.82,51.31A3.94,3.94,0,0,1,85.14,51a2.48,2.48,0,0,1-1.08-.94,3.12,3.12,0,0,1-.43-1.52c0-.29,0-.61,0-.94s0-.65,0-1a3,3,0,0,1,.43-1.48,2.5,2.5,0,0,1,1.1-.92,4.06,4.06,0,0,1,1.66-.32,4.72,4.72,0,0,1,1.37.19,3.24,3.24,0,0,1,1,.51,2.37,2.37,0,0,1,.62.7,1.65,1.65,0,0,1,.22.75.2.2,0,0,1-.06.15.23.23,0,0,1-.16.06h-1.5a.4.4,0,0,1-.17,0,.36.36,0,0,1-.1-.11,1.09,1.09,0,0,0-.21-.32,1.08,1.08,0,0,0-.38-.3,1.41,1.41,0,0,0-.63-.12,1.3,1.3,0,0,0-.92.31,1.36,1.36,0,0,0-.36,1c0,.59,0,1.19,0,1.79a1.44,1.44,0,0,0,.38,1,1.32,1.32,0,0,0,.92.32,1.75,1.75,0,0,0,.7-.14,1,1,0,0,0,.47-.41,1.34,1.34,0,0,0,.18-.73v-.19h-1a.29.29,0,0,1-.19-.08A.25.25,0,0,1,87,48.1v-.76a.26.26,0,0,1,.07-.19.29.29,0,0,1,.19-.08h2.59a.26.26,0,0,1,.19.08.32.32,0,0,1,.07.19v1.17a2.81,2.81,0,0,1-.4,1.51,2.57,2.57,0,0,1-1.14,1A4.14,4.14,0,0,1,86.82,51.31Z"/><path class="cls-1" d="M91.5,51.21a.24.24,0,0,1-.18-.07.25.25,0,0,1-.07-.19V44.28a.23.23,0,0,1,.07-.18A.24.24,0,0,1,91.5,44h1.38a.21.21,0,0,1,.18.07.23.23,0,0,1,.08.18V51a.26.26,0,0,1-.08.19.21.21,0,0,1-.18.07Z"/><path class="cls-1" d="M96.41,51.21a.23.23,0,0,1-.18-.07.26.26,0,0,1-.08-.19V45.64H94.33a.26.26,0,0,1-.19-.08.24.24,0,0,1-.07-.18v-1.1a.23.23,0,0,1,.07-.18.25.25,0,0,1,.19-.07h5.52a.21.21,0,0,1,.18.07.23.23,0,0,1,.08.18v1.1a.25.25,0,0,1-.08.18.22.22,0,0,1-.18.08H98V51a.25.25,0,0,1-.07.19.24.24,0,0,1-.18.07Z"/><path class="cls-1" d="M99.9,51.21a.21.21,0,0,1-.15-.07.2.2,0,0,1-.06-.14.31.31,0,0,1,0-.1l2.41-6.59a.41.41,0,0,1,.13-.2.36.36,0,0,1,.27-.08H104a.4.4,0,0,1,.27.08.41.41,0,0,1,.13.2l2.4,6.59a.3.3,0,0,1,0,.1.17.17,0,0,1-.07.14.18.18,0,0,1-.15.07h-1.27a.28.28,0,0,1-.23-.08A.5.5,0,0,1,105,51l-.4-1h-2.74l-.39,1a.33.33,0,0,1-.34.21Zm2.41-2.74h1.91l-1-2.71Z"/><path class="cls-1" d="M107.92,51.21a.25.25,0,0,1-.19-.07.29.29,0,0,1-.07-.19V44.28a.27.27,0,0,1,.07-.18.25.25,0,0,1,.19-.07h1.35a.24.24,0,0,1,.18.07.23.23,0,0,1,.08.18v5.38h3.1a.27.27,0,0,1,.27.27v1a.26.26,0,0,1-.08.19.25.25,0,0,1-.19.07Z"/><path class="cls-1" d="M115,51.21a.21.21,0,0,1-.15-.07.2.2,0,0,1-.06-.14.31.31,0,0,1,0-.1l2.41-6.59a.41.41,0,0,1,.13-.2.36.36,0,0,1,.27-.08h1.52a.36.36,0,0,1,.27.08.41.41,0,0,1,.13.2l2.4,6.59a.3.3,0,0,1,0,.1.2.2,0,0,1-.06.14.21.21,0,0,1-.16.07h-1.27a.28.28,0,0,1-.23-.08.5.5,0,0,1-.1-.13l-.4-1H117l-.39,1a.33.33,0,0,1-.34.21Zm2.41-2.74h1.91l-1-2.71Z"/><path class="cls-1" d="M125.59,51.31a3.94,3.94,0,0,1-1.68-.32,2.51,2.51,0,0,1-1.09-.94,3.12,3.12,0,0,1-.43-1.52c0-.29,0-.61,0-.94s0-.65,0-1a3,3,0,0,1,.43-1.48,2.5,2.5,0,0,1,1.1-.92,4.08,4.08,0,0,1,1.67-.32,4.7,4.7,0,0,1,1.36.19,3.24,3.24,0,0,1,1,.51,2.37,2.37,0,0,1,.62.7,1.65,1.65,0,0,1,.22.75.15.15,0,0,1-.06.15.23.23,0,0,1-.16.06h-1.5a.4.4,0,0,1-.17,0,.33.33,0,0,1-.09-.11,1.75,1.75,0,0,0-.21-.32,1.3,1.3,0,0,0-.38-.3,1.41,1.41,0,0,0-.63-.12,1.28,1.28,0,0,0-.92.31,1.32,1.32,0,0,0-.37,1c0,.59,0,1.19,0,1.79a1.44,1.44,0,0,0,.38,1,1.33,1.33,0,0,0,.93.32,1.67,1.67,0,0,0,.69-.14,1.13,1.13,0,0,0,.48-.41,1.43,1.43,0,0,0,.17-.73v-.19h-1a.26.26,0,0,1-.19-.08.22.22,0,0,1-.08-.19v-.76a.24.24,0,0,1,.08-.19.26.26,0,0,1,.19-.08h2.58a.26.26,0,0,1,.19.08.26.26,0,0,1,.07.19v1.17a2.72,2.72,0,0,1-.4,1.51,2.57,2.57,0,0,1-1.14,1A4.06,4.06,0,0,1,125.59,51.31Z"/><path class="cls-1" d="M130.27,51.21A.24.24,0,0,1,130,51V44.28a.23.23,0,0,1,.07-.18.25.25,0,0,1,.19-.07h4.79a.25.25,0,0,1,.19.07.27.27,0,0,1,.07.18v1a.29.29,0,0,1-.07.18.25.25,0,0,1-.19.07h-3.27v1.39h3A.22.22,0,0,1,135,47a.25.25,0,0,1,.07.19v.89a.24.24,0,0,1-.07.18.26.26,0,0,1-.19.08h-3v1.42h3.35a.29.29,0,0,1,.19.07.25.25,0,0,1,.07.19v1a.24.24,0,0,1-.26.26Z"/><path class="cls-1" d="M136.83,51.21a.24.24,0,0,1-.26-.26V44.28a.23.23,0,0,1,.07-.18.25.25,0,0,1,.19-.07h1.08a.38.38,0,0,1,.26.07.36.36,0,0,1,.09.12l2.51,4V44.28a.23.23,0,0,1,.07-.18A.24.24,0,0,1,141,44h1.24a.24.24,0,0,1,.18.07.23.23,0,0,1,.07.18V51a.24.24,0,0,1-.07.18.22.22,0,0,1-.18.08h-1.1a.33.33,0,0,1-.24-.08l-.1-.11-2.51-3.8V51a.25.25,0,0,1-.07.19.24.24,0,0,1-.18.07Z"/><path class="cls-1" d="M146.9,51.31a4,4,0,0,1-1.67-.31,2.54,2.54,0,0,1-1.08-.94,3.1,3.1,0,0,1-.43-1.53c0-.28,0-.58,0-.9s0-.63,0-.93a3.08,3.08,0,0,1,.44-1.51,2.47,2.47,0,0,1,1.08-.94,3.87,3.87,0,0,1,1.66-.33,4.5,4.5,0,0,1,1.25.17,3.27,3.27,0,0,1,1,.49,2.49,2.49,0,0,1,.67.78,2.35,2.35,0,0,1,.25,1,.15.15,0,0,1-.06.15.23.23,0,0,1-.16.06h-1.38a.41.41,0,0,1-.21,0,.42.42,0,0,1-.12-.21,1.17,1.17,0,0,0-.47-.75,1.49,1.49,0,0,0-.79-.2,1.29,1.29,0,0,0-.9.31,1.49,1.49,0,0,0-.36,1c0,.56,0,1.13,0,1.72a1.47,1.47,0,0,0,.36,1,1.25,1.25,0,0,0,.9.32,1.47,1.47,0,0,0,.8-.21,1.15,1.15,0,0,0,.46-.74.42.42,0,0,1,.12-.21.33.33,0,0,1,.21-.06h1.38a.2.2,0,0,1,.16.07.15.15,0,0,1,.06.15,2.23,2.23,0,0,1-.92,1.81,3.06,3.06,0,0,1-1,.49A4.15,4.15,0,0,1,146.9,51.31Z"/><path class="cls-1" d="M153.06,51.21a.24.24,0,0,1-.18-.07.26.26,0,0,1-.08-.19v-2.2l-2.38-4.4a.17.17,0,0,1,0-.05.13.13,0,0,1,0-.06.24.24,0,0,1,.06-.15.25.25,0,0,1,.16-.06h1.29a.36.36,0,0,1,.24.07.28.28,0,0,1,.1.14l1.48,2.65,1.48-2.65a.47.47,0,0,1,.12-.14.36.36,0,0,1,.24-.07h1.28a.21.21,0,0,1,.16.06.24.24,0,0,1,.06.15.13.13,0,0,1,0,.06.11.11,0,0,1,0,.05l-2.39,4.4V51a.29.29,0,0,1-.07.19.25.25,0,0,1-.19.07Z"/><path class="cls-1" d="M160.08,51.21a.24.24,0,0,1-.26-.26V44.28a.23.23,0,0,1,.07-.18.25.25,0,0,1,.19-.07H163a3.81,3.81,0,0,1,1.49.26,2.11,2.11,0,0,1,1,.78,2.29,2.29,0,0,1,.35,1.33,2.21,2.21,0,0,1-.35,1.3,2.08,2.08,0,0,1-1,.76,4.23,4.23,0,0,1-1.49.25h-1.22V51a.26.26,0,0,1-.08.19.25.25,0,0,1-.19.07Zm1.62-3.92h1.2a1,1,0,0,0,.7-.23.84.84,0,0,0,.27-.68,1,1,0,0,0-.23-.66.92.92,0,0,0-.74-.27h-1.2Z"/><path class="cls-1" d="M166,51.21a.24.24,0,0,1-.22-.21s0-.07,0-.1l2.42-6.59a.41.41,0,0,1,.13-.2.36.36,0,0,1,.27-.08h1.52a.4.4,0,0,1,.27.08.49.49,0,0,1,.13.2l2.4,6.59a.3.3,0,0,1,0,.1.17.17,0,0,1-.07.14.19.19,0,0,1-.16.07h-1.26a.28.28,0,0,1-.23-.08.5.5,0,0,1-.1-.13l-.4-1H168l-.39,1a.33.33,0,0,1-.34.21Zm2.41-2.74h1.91l-1-2.71Z"/><path class="cls-1" d="M174,51.21a.24.24,0,0,1-.26-.26V44.28a.23.23,0,0,1,.07-.18A.25.25,0,0,1,174,44h2.79a3.25,3.25,0,0,1,2.09.61,2.34,2.34,0,0,1,.41,3,2.3,2.3,0,0,1-.93.76l1.42,2.52a.27.27,0,0,1,0,.12.17.17,0,0,1-.07.14.2.2,0,0,1-.16.07h-1.35a.37.37,0,0,1-.29-.1.51.51,0,0,1-.13-.18l-1.17-2.25h-1.06V51a.29.29,0,0,1-.07.19.25.25,0,0,1-.19.07Zm1.58-4h1.19a1,1,0,0,0,.72-.24.86.86,0,0,0,.24-.64.88.88,0,0,0-.23-.65.94.94,0,0,0-.73-.25h-1.19Z"/><path class="cls-1" d="M181.08,51.21a.23.23,0,0,1-.18-.07.26.26,0,0,1-.08-.19V44.28a.23.23,0,0,1,.08-.18.23.23,0,0,1,.18-.07h1.29a.25.25,0,0,1,.19.07.23.23,0,0,1,.07.18v2.28l1.9-2.34a.6.6,0,0,1,.14-.13.48.48,0,0,1,.26-.06h1.48a.2.2,0,0,1,.15.06.24.24,0,0,1,.06.15.16.16,0,0,1,0,.12l-2.45,3.1,2.65,3.41a.17.17,0,0,1,0,.13.17.17,0,0,1-.07.14.18.18,0,0,1-.15.07h-1.53a.47.47,0,0,1-.28-.08l-.13-.12-2-2.54V51a.24.24,0,0,1-.26.26Z"/><path class="cls-2" d="M73.27,57.79a.06.06,0,0,1,0,0,.05.05,0,0,1,0,0v-2a.08.08,0,0,1,0-.05.06.06,0,0,1,0,0h.66a1.16,1.16,0,0,1,.51.09.59.59,0,0,1,.26.28,1.26,1.26,0,0,1,.08.46,2.09,2.09,0,0,1,0,.24,2.26,2.26,0,0,1,0,.25,1.28,1.28,0,0,1-.08.47.53.53,0,0,1-.26.27,1.12,1.12,0,0,1-.5.09Zm.13-.18h.53a.88.88,0,0,0,.39-.07.38.38,0,0,0,.2-.21.88.88,0,0,0,.07-.39v-.46a.73.73,0,0,0-.16-.5.72.72,0,0,0-.52-.16H73.4Z"/><path class="cls-2" d="M76.82,55.86a.06.06,0,0,1,0,0,.07.07,0,0,1,0-.05v-.11a.07.07,0,0,1,0,0,.06.06,0,0,1,0,0h.12s0,0,0,0a.08.08,0,0,1,0,0v.11a.08.08,0,0,1,0,.05s0,0,0,0Zm0,1.93s0,0,0,0a.05.05,0,0,1,0,0V56.26a.08.08,0,0,1,0,0l0,0h0l0,0a.08.08,0,0,1,0,0v1.47a.05.05,0,0,1,0,0s0,0,0,0Z"/><path class="cls-2" d="M79.61,58.47a.93.93,0,0,1-.32,0,.57.57,0,0,1-.19-.13.44.44,0,0,1-.1-.15A.35.35,0,0,1,79,58s0,0,0-.05,0,0,.05,0h.08s0,0,0,0a.67.67,0,0,1,.06.12.4.4,0,0,0,.14.11.44.44,0,0,0,.25,0,.75.75,0,0,0,.28,0,.34.34,0,0,0,.18-.15.68.68,0,0,0,.06-.31v-.21a.58.58,0,0,1-.21.17.57.57,0,0,1-.31.07.75.75,0,0,1-.31-.06.55.55,0,0,1-.2-.17.86.86,0,0,1-.11-.24.84.84,0,0,1,0-.27v-.17a.84.84,0,0,1,0-.27.66.66,0,0,1,.11-.24.55.55,0,0,1,.2-.17.62.62,0,0,1,.31-.07.57.57,0,0,1,.31.07.92.92,0,0,1,.21.17v-.14a.07.07,0,0,1,0,0l.05,0h0l0,0s0,0,0,0v1.5a1,1,0,0,1-.06.36.46.46,0,0,1-.2.26A.83.83,0,0,1,79.61,58.47Zm0-.82a.43.43,0,0,0,.28-.09.49.49,0,0,0,.16-.21,1,1,0,0,0,.06-.25v-.22a1.14,1.14,0,0,0-.06-.25.65.65,0,0,0-.16-.21.49.49,0,0,0-.28-.08.5.5,0,0,0-.29.08.41.41,0,0,0-.15.21.87.87,0,0,0-.05.28.48.48,0,0,0,0,.17.87.87,0,0,0,.05.28.51.51,0,0,0,.15.21A.5.5,0,0,0,79.62,57.65Z"/><path class="cls-2" d="M82.38,55.86s0,0,0,0a.08.08,0,0,1,0-.05v-.11a.08.08,0,0,1,0,0s0,0,0,0h.12a.06.06,0,0,1,0,0,.08.08,0,0,1,0,0v.11a.08.08,0,0,1,0,.05.06.06,0,0,1,0,0Zm0,1.93a.06.06,0,0,1,0,0,.05.05,0,0,1,0,0V56.26a.08.08,0,0,1,0,0l0,0h0a.06.06,0,0,1,.05,0s0,0,0,0v1.47s0,0,0,0,0,0-.05,0Z"/><path class="cls-2" d="M85.11,57.79a.44.44,0,0,1-.25-.06.36.36,0,0,1-.13-.19.71.71,0,0,1,0-.26v-.91h-.24l0,0a.08.08,0,0,1,0-.05v0a.08.08,0,0,1,0,0l0,0h.24v-.52a.05.05,0,0,1,0,0s0,0,.05,0h0s0,0,0,0a.05.05,0,0,1,0,0v.52h.38l0,0a.08.08,0,0,1,0,0v0a.08.08,0,0,1,0,.05l0,0h-.38v.9a.55.55,0,0,0,.05.25.22.22,0,0,0,.2.09h.16l0,0s0,0,0,0v0a.05.05,0,0,1,0,0s0,0,0,0Z"/><path class="cls-2" d="M87.65,57.82a.6.6,0,0,1-.27-.06.49.49,0,0,1-.21-.16.39.39,0,0,1-.07-.23.38.38,0,0,1,.17-.34.92.92,0,0,1,.44-.16l.48-.07v-.11a.34.34,0,0,0-.1-.26.45.45,0,0,0-.32-.09.46.46,0,0,0-.25.06.29.29,0,0,0-.14.17.05.05,0,0,1-.06,0h0s0,0,0,0a.08.08,0,0,1,0,0,.3.3,0,0,1,0-.11.31.31,0,0,1,.1-.13.56.56,0,0,1,.17-.11,1,1,0,0,1,.26,0,.78.78,0,0,1,.3.05.46.46,0,0,1,.19.13.56.56,0,0,1,.09.17.68.68,0,0,1,0,.19v1a.05.05,0,0,1,0,0s0,0,0,0h0s0,0-.05,0a.05.05,0,0,1,0,0v-.15a.5.5,0,0,1-.1.11.61.61,0,0,1-.18.1A1,1,0,0,1,87.65,57.82Zm0-.17a.59.59,0,0,0,.26-.07.37.37,0,0,0,.18-.19.61.61,0,0,0,.07-.32V57L87.8,57a1.06,1.06,0,0,0-.39.12.27.27,0,0,0-.13.21.25.25,0,0,0,.06.17.38.38,0,0,0,.15.09A.65.65,0,0,0,87.68,57.65Z"/><path class="cls-2" d="M90.48,57.79s0,0,0,0a.05.05,0,0,1,0,0V55.67a.05.05,0,0,1,0,0s0,0,0,0h0s0,0,0,0a.05.05,0,0,1,0,0v2.06a.05.05,0,0,1,0,0s0,0,0,0Z"/><path class="cls-2" d="M95.09,57.79s0,0-.06,0a.05.05,0,0,1,0,0v-2a.08.08,0,0,1,0-.05s0,0,.06,0h.12l0,0,.7,1.36.7-1.36,0,0h.12s0,0,0,0a.08.08,0,0,1,0,.05v2a.05.05,0,0,1,0,0s0,0,0,0h-.06s0,0,0,0a.05.05,0,0,1,0,0V56.06l-.58,1.15a.1.1,0,0,1,0,0l-.06,0h-.07l-.06,0,0,0-.59-1.15v1.67a.05.05,0,0,1,0,0s0,0,0,0Z"/><path class="cls-2" d="M99.35,57.82a.67.67,0,0,1-.28-.06.53.53,0,0,1-.2-.16.39.39,0,0,1-.07-.23A.38.38,0,0,1,99,57a.92.92,0,0,1,.44-.16l.48-.07v-.11a.34.34,0,0,0-.1-.26.45.45,0,0,0-.32-.09.46.46,0,0,0-.25.06.29.29,0,0,0-.14.17.05.05,0,0,1-.06,0h0s0,0,0,0a.08.08,0,0,1,0,0,.19.19,0,0,1,0-.11.31.31,0,0,1,.1-.13.56.56,0,0,1,.17-.11,1,1,0,0,1,.26,0,.85.85,0,0,1,.3.05.53.53,0,0,1,.19.13.56.56,0,0,1,.09.17.68.68,0,0,1,0,.19v1a.05.05,0,0,1,0,0s0,0,0,0H100s0,0,0,0a.05.05,0,0,1,0,0v-.15a.5.5,0,0,1-.1.11.77.77,0,0,1-.18.1A1,1,0,0,1,99.35,57.82Zm0-.17a.59.59,0,0,0,.26-.07.42.42,0,0,0,.18-.19.61.61,0,0,0,.07-.32V57L99.5,57a1.06,1.06,0,0,0-.39.12.27.27,0,0,0-.13.21.25.25,0,0,0,.06.17.38.38,0,0,0,.15.09A.58.58,0,0,0,99.38,57.65Z"/><path class="cls-2" d="M102.17,57.79s0,0,0,0,0,0,0,0V56.26s0,0,0,0l0,0h0l0,0s0,0,0,0v.14a.49.49,0,0,1,.16-.16.67.67,0,0,1,.26-.05h.12l0,0a.08.08,0,0,1,0,0v0a.08.08,0,0,1,0,.05l0,0h-.13a.41.41,0,0,0-.3.11.4.4,0,0,0-.11.29v1s0,0,0,0,0,0,0,0Z"/><path class="cls-2" d="M104.79,57.79s0,0-.05,0a.05.05,0,0,1,0,0V55.67a.05.05,0,0,1,0,0s0,0,.05,0h0s0,0,0,0a.05.05,0,0,1,0,0v1.09l.69-.52.06,0h.12l0,0a.05.05,0,0,1,0,0v0l0,0-.78.6.85.76a.09.09,0,0,1,0,.06.09.09,0,0,1,0,.05h-.16l-.07,0-.77-.69v.68a.05.05,0,0,1,0,0s0,0,0,0Z"/><path class="cls-2" d="M108.28,57.82a.58.58,0,0,1-.47-.19.78.78,0,0,1-.2-.51.53.53,0,0,1,0-.13.41.41,0,0,1,0-.12.88.88,0,0,1,.1-.37.56.56,0,0,1,.23-.25.71.71,0,0,1,.71,0,.56.56,0,0,1,.23.27A1.1,1.1,0,0,1,109,57v0s0,0,0,0l0,0h-1.1v0a.77.77,0,0,0,.07.26.5.5,0,0,0,.17.21.41.41,0,0,0,.25.08.67.67,0,0,0,.22,0,.56.56,0,0,0,.14-.09.43.43,0,0,0,.07-.07s0-.05,0-.05h.1l.05,0a.05.05,0,0,1,0,0,.34.34,0,0,1,0,.11.51.51,0,0,1-.13.12.54.54,0,0,1-.2.1A.68.68,0,0,1,108.28,57.82Zm-.49-.92h1v0a.76.76,0,0,0,0-.27.55.55,0,0,0-.17-.2.5.5,0,0,0-.27-.07.44.44,0,0,0-.26.07.55.55,0,0,0-.17.2.6.6,0,0,0-.06.27Z"/><path class="cls-2" d="M111.44,57.79a.44.44,0,0,1-.25-.06.36.36,0,0,1-.13-.19.71.71,0,0,1,0-.26v-.91h-.24l0,0a.08.08,0,0,1,0-.05v0a.08.08,0,0,1,0,0l0,0H111v-.52a.05.05,0,0,1,0,0s0,0,0,0h0s0,0,0,0a.05.05,0,0,1,0,0v.52h.38l0,0a.08.08,0,0,1,0,0v0a.08.08,0,0,1,0,.05l0,0h-.38v.9a.55.55,0,0,0,.05.25.22.22,0,0,0,.2.09h.16l0,0s0,0,0,0v0a.05.05,0,0,1,0,0s0,0,0,0Z"/><path class="cls-2" d="M113.58,55.86s0,0,0,0a.08.08,0,0,1,0-.05v-.11a.08.08,0,0,1,0,0s0,0,0,0h.12s0,0,0,0a.08.08,0,0,1,0,0v.11a.08.08,0,0,1,0,.05s0,0,0,0Zm0,1.93s0,0-.05,0,0,0,0,0V56.26s0,0,0,0l.05,0h0l0,0a.08.08,0,0,1,0,0v1.47a.05.05,0,0,1,0,0,.06.06,0,0,1,0,0Z"/><path class="cls-2" d="M115.94,57.79s0,0,0,0a.05.05,0,0,1,0,0V56.26a.08.08,0,0,1,0,0l0,0h0l.05,0a.08.08,0,0,1,0,0v.14a.55.55,0,0,1,.2-.17.58.58,0,0,1,.32-.07.62.62,0,0,1,.34.09.47.47,0,0,1,.21.25.78.78,0,0,1,.07.35v.88s0,0,0,0,0,0,0,0h-.06a.06.06,0,0,1,0,0s0,0,0,0v-.86a.57.57,0,0,0-.12-.39.46.46,0,0,0-.36-.14.48.48,0,0,0-.35.14.53.53,0,0,0-.13.39v.86a.05.05,0,0,1,0,0s0,0-.05,0Z"/><path class="cls-2" d="M119.82,58.47a1,1,0,0,1-.32,0,.57.57,0,0,1-.19-.13.44.44,0,0,1-.1-.15.35.35,0,0,1,0-.12s0,0,0-.05,0,0,0,0h.08s0,0,0,0a.66.66,0,0,0,.06.12.29.29,0,0,0,.13.11.44.44,0,0,0,.25,0,.75.75,0,0,0,.28,0,.34.34,0,0,0,.18-.15.68.68,0,0,0,.06-.31v-.21a.58.58,0,0,1-.21.17.57.57,0,0,1-.31.07.67.67,0,0,1-.3-.06.51.51,0,0,1-.21-.17.86.86,0,0,1-.11-.24.84.84,0,0,1,0-.27v-.17a.84.84,0,0,1,0-.27.66.66,0,0,1,.11-.24.51.51,0,0,1,.21-.17.56.56,0,0,1,.3-.07.57.57,0,0,1,.31.07.92.92,0,0,1,.21.17v-.14a.07.07,0,0,1,0,0l0,0h0l0,0s0,0,0,0v1.5a1.36,1.36,0,0,1-.05.36.53.53,0,0,1-.21.26A.83.83,0,0,1,119.82,58.47Zm0-.82a.47.47,0,0,0,.44-.3,1,1,0,0,0,.06-.25v-.22a1.14,1.14,0,0,0-.06-.25.54.54,0,0,0-.16-.21.49.49,0,0,0-.28-.08.5.5,0,0,0-.29.08.41.41,0,0,0-.15.21.87.87,0,0,0,0,.28v.17a.87.87,0,0,0,0,.28.51.51,0,0,0,.15.21A.5.5,0,0,0,119.83,57.65Z"/><path class="cls-2" d="M124.69,57.79a0,0,0,0,1,0,0,.05.05,0,0,1,0,0,0,0,0,0,1,0,0l.78-2a.09.09,0,0,1,0-.05h.22l0,.05.78,2v0a.05.05,0,0,1,0,0,.06.06,0,0,1,0,0h-.1s0,0,0,0l-.19-.5H125l-.19.5,0,0h-.11Zm.4-.72H126l-.47-1.21Z"/><path class="cls-2" d="M128.92,58.47a1,1,0,0,1-.32,0,.57.57,0,0,1-.19-.13.44.44,0,0,1-.1-.15.35.35,0,0,1,0-.12s0,0,0-.05,0,0,0,0h.08s0,0,0,0a.66.66,0,0,0,.06.12.29.29,0,0,0,.13.11.44.44,0,0,0,.25,0,.75.75,0,0,0,.28,0,.34.34,0,0,0,.18-.15.68.68,0,0,0,.06-.31v-.21a.51.51,0,0,1-.21.17.57.57,0,0,1-.31.07.67.67,0,0,1-.3-.06.58.58,0,0,1-.21-.17.86.86,0,0,1-.11-.24,1.26,1.26,0,0,1,0-.27v-.17a1.26,1.26,0,0,1,0-.27.66.66,0,0,1,.11-.24.58.58,0,0,1,.21-.17.56.56,0,0,1,.3-.07.57.57,0,0,1,.31.07.74.74,0,0,1,.21.17v-.14s0,0,0,0a.05.05,0,0,1,0,0h0l.05,0s0,0,0,0v1.5a1.36,1.36,0,0,1-.05.36.53.53,0,0,1-.21.26A.83.83,0,0,1,128.92,58.47Zm0-.82a.47.47,0,0,0,.44-.3,1,1,0,0,0,.06-.25v-.22a1.14,1.14,0,0,0-.06-.25.54.54,0,0,0-.16-.21.49.49,0,0,0-.28-.08.5.5,0,0,0-.29.08.41.41,0,0,0-.15.21.87.87,0,0,0-.05.28v.17a.87.87,0,0,0,.05.28.51.51,0,0,0,.15.21A.5.5,0,0,0,128.93,57.65Z"/><path class="cls-2" d="M132.25,57.82a.58.58,0,0,1-.47-.19.78.78,0,0,1-.2-.51.53.53,0,0,1,0-.13.41.41,0,0,1,0-.12,1.06,1.06,0,0,1,.09-.37.7.7,0,0,1,.23-.25.68.68,0,0,1,.35-.09.64.64,0,0,1,.37.1.56.56,0,0,1,.23.27,1.1,1.1,0,0,1,.08.43v0a.08.08,0,0,1,0,0l0,0h-1.1v0a.77.77,0,0,0,.07.26.56.56,0,0,0,.16.21.47.47,0,0,0,.26.08.67.67,0,0,0,.22,0,.56.56,0,0,0,.14-.09l.07-.07s0-.05,0-.05h.1l.05,0s0,0,0,0a.19.19,0,0,1,0,.11.51.51,0,0,1-.13.12.54.54,0,0,1-.2.1A.71.71,0,0,1,132.25,57.82Zm-.49-.92h1v0a.6.6,0,0,0-.06-.27.45.45,0,0,0-.16-.2.5.5,0,0,0-.27-.07.44.44,0,0,0-.26.07.47.47,0,0,0-.17.2.6.6,0,0,0-.06.27Z"/><path class="cls-2" d="M135,57.79s0,0,0,0,0,0,0,0V56.26s0,0,0,0a.06.06,0,0,1,0,0H135l.05,0a.08.08,0,0,1,0,0v.14a.55.55,0,0,1,.2-.17.57.57,0,0,1,.31-.07.63.63,0,0,1,.35.09.47.47,0,0,1,.21.25.78.78,0,0,1,.07.35v.88a.05.05,0,0,1,0,0s0,0-.05,0h0s0,0-.05,0a.05.05,0,0,1,0,0v-.86a.57.57,0,0,0-.12-.39.44.44,0,0,0-.35-.14.48.48,0,0,0-.35.14.53.53,0,0,0-.13.39v.86a.05.05,0,0,1,0,0,.06.06,0,0,1-.05,0Z"/><path class="cls-2" d="M138.84,57.82a.75.75,0,0,1-.37-.08.54.54,0,0,1-.22-.25.72.72,0,0,1-.09-.37v-.25a.74.74,0,0,1,.09-.38.47.47,0,0,1,.22-.24.75.75,0,0,1,.37-.09.78.78,0,0,1,.28.05.55.55,0,0,1,.2.11.61.61,0,0,1,.12.16.59.59,0,0,1,0,.17.08.08,0,0,1,0,.05l-.05,0h0l-.05,0s0,0,0-.05a.5.5,0,0,0-.17-.24.51.51,0,0,0-.28-.07.49.49,0,0,0-.35.13.53.53,0,0,0-.14.41.81.81,0,0,0,0,.22.57.57,0,0,0,.14.42.54.54,0,0,0,.35.13.61.61,0,0,0,.28-.07.48.48,0,0,0,.17-.25l0,0h.14s0,0,0,0a.35.35,0,0,1,0,.14.83.83,0,0,1-.07.13.74.74,0,0,1-.13.12.48.48,0,0,1-.18.07A.8.8,0,0,1,138.84,57.82Z"/><path class="cls-2" d="M141.64,58.38l0,0a0,0,0,0,1,0,0v0l0,0,.23-.56-.58-1.39a.1.1,0,0,1,0-.06,0,0,0,0,1,0,0l0,0h.06l.05,0s0,0,0,0l.52,1.22.53-1.22,0,0,0,0h.06l.05,0a.08.08,0,0,1,0,0l0,.06-.88,2s0,0,0,0l-.05,0Z"/><path class="cls-2" d="M146.91,57.79s0,0,0,0,0,0,0,0v-2s0,0,0-.05,0,0,0,0H147s0,0,0,0,0,0,0,.05v2s0,0,0,0,0,0,0,0Z"/><path class="cls-2" d="M149.18,57.79s0,0-.05,0a.05.05,0,0,1,0,0V56.26a.08.08,0,0,1,0,0l.05,0h0l.05,0a.08.08,0,0,1,0,0v.14a.55.55,0,0,1,.2-.17.61.61,0,0,1,.32-.07.65.65,0,0,1,.35.09.58.58,0,0,1,.21.25,1,1,0,0,1,.07.35v.88a.05.05,0,0,1,0,0,.06.06,0,0,1-.05,0h-.06s0,0,0,0,0,0,0,0v-.86a.57.57,0,0,0-.12-.39.45.45,0,0,0-.35-.14.49.49,0,0,0-.36.14.53.53,0,0,0-.13.39v.86a.05.05,0,0,1,0,0s0,0-.05,0Z"/><path class="cls-2" d="M154.91,57.79s0,0,0,0a.05.05,0,0,1,0,0v-2a.08.08,0,0,1,0-.05s0,0,0,0h.8a.74.74,0,0,1,.36.07.5.5,0,0,1,.2.21.6.6,0,0,1,.06.27.48.48,0,0,1,0,.22.49.49,0,0,1-.1.16l-.13.09a.56.56,0,0,1,.22.19.59.59,0,0,1,.1.33.64.64,0,0,1-.08.3.58.58,0,0,1-.21.23.75.75,0,0,1-.35.08Zm.13-1.22h.63a.5.5,0,0,0,.35-.1.39.39,0,0,0,0-.56.56.56,0,0,0-.35-.09H155Zm0,1h.67a.5.5,0,0,0,.35-.12.41.41,0,0,0,.12-.31.41.41,0,0,0-.12-.3.5.5,0,0,0-.35-.12H155Z"/><path class="cls-2" d="M158.78,57.82a.66.66,0,0,1-.27-.06.53.53,0,0,1-.2-.16.4.4,0,0,1-.08-.23.41.41,0,0,1,.17-.34,1,1,0,0,1,.44-.16l.49-.07v-.11a.34.34,0,0,0-.1-.26.47.47,0,0,0-.32-.09.5.5,0,0,0-.26.06.31.31,0,0,0-.13.17.05.05,0,0,1-.06,0h-.05s0,0,0,0a.08.08,0,0,1,0,0,.26.26,0,0,1,0-.11.64.64,0,0,1,.1-.13.78.78,0,0,1,.18-.11,1,1,0,0,1,.26,0,.85.85,0,0,1,.3.05.53.53,0,0,1,.19.13.56.56,0,0,1,.09.17.68.68,0,0,1,0,.19v1a.05.05,0,0,1,0,0s0,0-.05,0h0s0,0-.05,0a.05.05,0,0,1,0,0v-.15a.5.5,0,0,1-.1.11.77.77,0,0,1-.18.1A1,1,0,0,1,158.78,57.82Zm0-.17a.52.52,0,0,0,.25-.07.44.44,0,0,0,.19-.19.61.61,0,0,0,.07-.32V57l-.4.05a1,1,0,0,0-.38.12.25.25,0,0,0-.13.21.25.25,0,0,0,.06.17.38.38,0,0,0,.15.09A.58.58,0,0,0,158.82,57.65Z"/><path class="cls-2" d="M161.61,57.79s0,0-.05,0a.05.05,0,0,1,0,0V56.26a.08.08,0,0,1,0,0l.05,0h0l.05,0s0,0,0,0v.14a.65.65,0,0,1,.2-.17.61.61,0,0,1,.32-.07.63.63,0,0,1,.35.09.58.58,0,0,1,.21.25,1,1,0,0,1,.07.35v.88a.05.05,0,0,1,0,0s0,0-.05,0h-.05s0,0,0,0a.05.05,0,0,1,0,0v-.86a.57.57,0,0,0-.12-.39.45.45,0,0,0-.35-.14.47.47,0,0,0-.35.14.53.53,0,0,0-.14.39v.86s0,0,0,0,0,0-.05,0Z"/><path class="cls-2" d="M165.5,58.47a.93.93,0,0,1-.32,0,.63.63,0,0,1-.2-.13.4.4,0,0,1-.09-.15l0-.12a.08.08,0,0,1,0-.05.06.06,0,0,1,0,0H165s0,0,0,0l.06.12a.36.36,0,0,0,.13.11.47.47,0,0,0,.25,0,.81.81,0,0,0,.29,0,.35.35,0,0,0,.17-.15.68.68,0,0,0,.06-.31v-.21a.55.55,0,0,1-.2.17.61.61,0,0,1-.32.07.67.67,0,0,1-.3-.06.55.55,0,0,1-.2-.17,1.34,1.34,0,0,1-.12-.24,2.51,2.51,0,0,1,0-.27v-.17a2.51,2.51,0,0,1,0-.27.9.9,0,0,1,.12-.24.61.61,0,0,1,.5-.24.61.61,0,0,1,.32.07.85.85,0,0,1,.2.17v-.14a.08.08,0,0,1,0,0l0,0h.05l0,0a.08.08,0,0,1,0,0v1.5a1,1,0,0,1-.06.36.53.53,0,0,1-.21.26A.82.82,0,0,1,165.5,58.47Zm0-.82a.41.41,0,0,0,.28-.09.37.37,0,0,0,.16-.21.54.54,0,0,0,.06-.25v-.22a.57.57,0,0,0-.06-.25.46.46,0,0,0-.16-.21.53.53,0,0,0-.56,0,.49.49,0,0,0-.16.21,1.26,1.26,0,0,0-.05.28v.17a1.26,1.26,0,0,0,.05.28.65.65,0,0,0,.16.21A.47.47,0,0,0,165.5,57.65Z"/><path class="cls-2" d="M168.3,57.79s0,0-.05,0a.05.05,0,0,1,0,0V55.67a.05.05,0,0,1,0,0s0,0,.05,0h0s0,0,.05,0,0,0,0,0v2.06s0,0,0,0,0,0-.05,0Z"/><path class="cls-2" d="M170.89,57.82a.63.63,0,0,1-.27-.06.53.53,0,0,1-.2-.16.4.4,0,0,1-.08-.23.41.41,0,0,1,.17-.34,1,1,0,0,1,.44-.16l.49-.07v-.11a.34.34,0,0,0-.1-.26.47.47,0,0,0-.32-.09.5.5,0,0,0-.26.06.31.31,0,0,0-.13.17.05.05,0,0,1-.06,0h0s0,0-.05,0a.08.08,0,0,1,0,0,.26.26,0,0,1,0-.11.41.41,0,0,1,.1-.13.78.78,0,0,1,.18-.11,1,1,0,0,1,.26,0,.85.85,0,0,1,.3.05.53.53,0,0,1,.19.13.56.56,0,0,1,.09.17.68.68,0,0,1,0,.19v1a.05.05,0,0,1,0,0s0,0-.05,0h-.05s0,0,0,0a.05.05,0,0,1,0,0v-.15l-.11.11a.55.55,0,0,1-.17.1A1,1,0,0,1,170.89,57.82Zm0-.17a.53.53,0,0,0,.26-.07.44.44,0,0,0,.19-.19.61.61,0,0,0,.07-.32V57L171,57a1,1,0,0,0-.38.12.25.25,0,0,0-.13.21.25.25,0,0,0,.06.17.38.38,0,0,0,.15.09A.58.58,0,0,0,170.92,57.65Z"/><path class="cls-2" d="M174.23,57.82a.67.67,0,0,1-.3-.06.55.55,0,0,1-.2-.17,1.34,1.34,0,0,1-.12-.24,2.51,2.51,0,0,1,0-.27v-.17a2.51,2.51,0,0,1,0-.27.9.9,0,0,1,.12-.24.61.61,0,0,1,.5-.24.63.63,0,0,1,.32.07.85.85,0,0,1,.2.17v-.73a.05.05,0,0,1,0,0s0,0,0,0h.05s0,0,0,0a.05.05,0,0,1,0,0v2.06a.05.05,0,0,1,0,0s0,0,0,0h-.05s0,0,0,0a.05.05,0,0,1,0,0v-.15a.55.55,0,0,1-.2.17A.63.63,0,0,1,174.23,57.82Zm0-.17a.41.41,0,0,0,.28-.09.37.37,0,0,0,.16-.21.54.54,0,0,0,.06-.25v-.24a.53.53,0,0,0-.06-.24.45.45,0,0,0-.16-.2.53.53,0,0,0-.56,0,.42.42,0,0,0-.16.21,1.26,1.26,0,0,0-.05.28v.17a1.26,1.26,0,0,0,.05.28.54.54,0,0,0,.16.21A.47.47,0,0,0,174.25,57.65Z"/><path class="cls-2" d="M177.57,57.82a.6.6,0,0,1-.47-.19.84.84,0,0,1-.2-.51v-.25a.88.88,0,0,1,.1-.37.56.56,0,0,1,.23-.25.71.71,0,0,1,.71,0,.56.56,0,0,1,.23.27.94.94,0,0,1,.08.43v0s0,0,0,0l0,0h-1.09v0a.6.6,0,0,0,.23.47.44.44,0,0,0,.25.08.62.62,0,0,0,.22,0,.56.56,0,0,0,.14-.09l.07-.07s0-.05,0-.05h.1l.05,0a.05.05,0,0,1,0,0,.21.21,0,0,1-.05.11.51.51,0,0,1-.13.12.57.57,0,0,1-.19.1A.77.77,0,0,1,177.57,57.82Zm-.48-.92h1v0a.6.6,0,0,0-.06-.27.55.55,0,0,0-.17-.2.47.47,0,0,0-.27-.07.44.44,0,0,0-.26.07.55.55,0,0,0-.17.2.76.76,0,0,0,0,.27Z"/><path class="cls-2" d="M180.71,57.82a.79.79,0,0,1-.28,0,.85.85,0,0,1-.19-.1.6.6,0,0,1-.11-.12.23.23,0,0,1,0-.09,0,0,0,0,1,0,0l0,0h.08l0,0a.43.43,0,0,0,.09.1.57.57,0,0,0,.13.08.66.66,0,0,0,.21,0,.56.56,0,0,0,.3-.08.21.21,0,0,0,.12-.2.2.2,0,0,0,0-.14.45.45,0,0,0-.17-.1l-.3-.08a1.12,1.12,0,0,1-.3-.11.29.29,0,0,1-.14-.15.39.39,0,0,1,0-.18.42.42,0,0,1,.06-.21.45.45,0,0,1,.19-.17.56.56,0,0,1,.3-.07.68.68,0,0,1,.26,0,.55.55,0,0,1,.17.1.33.33,0,0,1,.1.11.16.16,0,0,1,0,.09s0,0,0,0l-.05,0h-.08l0,0a.24.24,0,0,0-.08-.09.18.18,0,0,0-.11-.07.53.53,0,0,0-.2,0,.41.41,0,0,0-.27.07.27.27,0,0,0-.09.2.19.19,0,0,0,0,.12.33.33,0,0,0,.14.09,1.44,1.44,0,0,0,.29.09.94.94,0,0,1,.31.1.34.34,0,0,1,.16.15.36.36,0,0,1,0,.21.36.36,0,0,1-.07.22.42.42,0,0,1-.2.17A.9.9,0,0,1,180.71,57.82Z"/><path class="cls-2" d="M183.33,57.79s0,0-.05,0,0,0,0,0V55.67s0,0,0,0,0,0,.05,0h0s0,0,.05,0a.05.05,0,0,1,0,0v.73a.55.55,0,0,1,.2-.17.57.57,0,0,1,.31-.07.63.63,0,0,1,.35.09.47.47,0,0,1,.21.25.78.78,0,0,1,.07.35v.88s0,0,0,0,0,0,0,0h-.05a.06.06,0,0,1-.05,0,.05.05,0,0,1,0,0v-.86a.57.57,0,0,0-.12-.39.44.44,0,0,0-.35-.14.48.48,0,0,0-.35.14.53.53,0,0,0-.13.39v.86a.05.05,0,0,1,0,0s0,0-.05,0Z"/><path class="cls-3" d="M113.09,31.43a5.9,5.9,0,0,0,2.54-.48,3.24,3.24,0,0,0,1.54-1.52,6.4,6.4,0,0,0,.55-2.71c0-.68.08-1.3.09-1.85s0-1.09,0-1.64,0-1.15-.09-1.81a5.14,5.14,0,0,0-1-3.31,33.48,33.48,0,0,0-7,13.32Z"/><path class="cls-4" d="M116.68,18.11a5.14,5.14,0,0,1,1,3.31c0,.66.08,1.27.09,1.81s0,1.1,0,1.64,0,1.17-.09,1.85a6.4,6.4,0,0,1-.55,2.71A3.24,3.24,0,0,1,115.63,31a5.9,5.9,0,0,1-2.54.48h-3.37a29.47,29.47,0,0,0-.83,5.13h4.38a14.71,14.71,0,0,0,5.89-1.05,7.63,7.63,0,0,0,3.67-3.23,11.92,11.92,0,0,0,1.41-5.48c0-1,0-1.93,0-2.71s0-1.7,0-2.75A10.69,10.69,0,0,0,122.81,16a8.06,8.06,0,0,0-1.89-2.14A36,36,0,0,0,116.68,18.11Z"/><path class="cls-5" d="M109.31,16.75v.18l.17-.18Z"/><path class="cls-6" d="M113.6,11.63a42.53,42.53,0,0,0-10.67,12.89V35.67a.9.9,0,0,0,.25.64.86.86,0,0,0,.64.25h4.44a29.11,29.11,0,0,1,1-6.46A33.41,33.41,0,0,1,116,17.53a36.28,36.28,0,0,1,4.15-4.17,37.65,37.65,0,0,1,3.27-2.51C133.14,4.17,141.75,1,157,6.73c1.43.54,2.86,1.15,4.3,1.86C141.08-3,126.76.88,113.6,11.63Zm-4.29,5.3v-.18h.17Z"/><path class="cls-4" d="M155.8,12.1a.32.32,0,0,0,.12-.08l2.64-2.8a.3.3,0,0,0-.43-.41l-2.64,2.81a.29.29,0,0,0,0,.41A.3.3,0,0,0,155.8,12.1Z"/><path class="cls-4" d="M149.76,8.3A48.07,48.07,0,0,1,139.65,16l2.39,7a48.22,48.22,0,0,1,12.69-.18Z"/><path class="cls-4" d="M160.09,12.5l-3.52,1.21a.31.31,0,0,0-.19.38.3.3,0,0,0,.38.18l3.53-1.21a.3.3,0,1,0-.2-.56Z"/><path class="cls-4" d="M161.1,16.6,157.29,16a.31.31,0,0,0-.34.25.29.29,0,0,0,.25.33l3.8.59a.38.38,0,0,0,.15,0,.32.32,0,0,0,.19-.23A.29.29,0,0,0,161.1,16.6Z"/><path class="cls-4" d="M153.09,12.35l-1.68-4.86a.6.6,0,0,0-.77-.38l-.06,0a.61.61,0,0,0-.38.78l5.11,14.86a.61.61,0,0,0,.78.38l0,0a.61.61,0,0,0,.38-.78l-1.67-4.86a2.87,2.87,0,0,0,.63-3.09A2.9,2.9,0,0,0,153.09,12.35Z"/><path class="cls-4" d="M139.57,16l2.37,6.91h.1L139.65,16Z"/><polygon class="cls-3" points="138.44 21.68 138.44 19.69 135.28 28.77 141.9 28.77 138.74 19.89 138.74 21.68 138.44 21.68"/><path class="cls-4" d="M151,37.22l-8.33-22.88a1.46,1.46,0,0,0-.45-.69,1.38,1.38,0,0,0-.94-.3h-2.49v6.53l3.16,8.89h-6.62l3.16-9.08V13.35H136a1.36,1.36,0,0,0-.94.3,1.39,1.39,0,0,0-.45.69l-8.37,22.88a1.47,1.47,0,0,0,0,.32.72.72,0,0,0,.24.52.71.71,0,0,0,.51.23h4.39a1.13,1.13,0,0,0,.85-.27,1.42,1.42,0,0,0,.32-.48l1.36-3.64h9.51l1.39,3.64a1.38,1.38,0,0,0,.34.48,1.06,1.06,0,0,0,.8.27h4.38a.76.76,0,0,0,.55-.23.71.71,0,0,0,.23-.52A.66.66,0,0,0,151,37.22Z"/></svg>